<?xml version="1.0" encoding="utf-8"?>
<!-- Generator: Adobe Illustrator 25.2.1, SVG Export Plug-In . SVG Version: 6.00 Build 0)  -->
<svg version="1.1" id="Layer_1" xmlns="http://www.w3.org/2000/svg" xmlns:xlink="http://www.w3.org/1999/xlink" x="0px" y="0px"
	 viewBox="0 0 100 125" style="enable-background:new 0 0 100 125;" xml:space="preserve">
<path d="M75.5,33.5c-0.3-4.8-3.2-8.6-7.5-8.6H32.1c-4.3,0-6.9,3.4-7.5,8.6l-0.1,1.4v54c0,4,3.3,7.2,7.2,7.2H33v-3.4h4v3.4h31.3
	c4,0,7.2-3.3,7.2-7.2V88v-1V59.6v-1V56v-1V39.6v-1v-3.7V33.5z M33,33.8h4v1.1h-4V33.8z M33,86.5h4v1.1h-4V86.5z M33,84.6v-1.1h4v1.1
	H33z M33,81.5v-1.1h4v1.1H33z M33,78.4v-1.1h4v1.1H33z M33,75.3v-1.1h4v1.1H33z M33,72.2v-1.1h4v1.1H33z M33,69.1V68h4v1.1H33z
	 M33,66v-1.1h4V66H33z M33,62.9v-1.2h4v1.2H33z M33,36.9h4V38h-4V36.9z M33,40h4v1.1h-4V40z M33,43.1h4v1.1h-4V43.1z M33,46.2h4v1.1
	h-4V46.2z M33,49.3h4v1.1h-4V49.3z M33,52.4h4v1.1h-4V52.4z M33,55.5h4v1.1h-4V55.5z M33,58.6h4v1.1h-4V58.6z M33,90.8v-1.1h4v1.1
	H33z M68.4,27.7h-2v15.5l-4.5-4.5l-4.6,4.6V27.7H37.1v4.1h-4v-4.1h-1.4c-2,0-3.9,0.8-5.2,2.2c1.1-2.2,3.2-4,5.6-4h35.8
	c2.4,0,4.5,1.8,5.6,4C72.2,28.5,70.4,27.7,68.4,27.7z"/>
</svg>
