<?xml version="1.0" encoding="utf-8"?>
<!-- Generator: Adobe Illustrator 25.2.1, SVG Export Plug-In . SVG Version: 6.00 Build 0)  -->
<svg version="1.1" id="Layer_1" xmlns="http://www.w3.org/2000/svg" xmlns:xlink="http://www.w3.org/1999/xlink" x="0px" y="0px"
	 viewBox="0 0 512 640" style="enable-background:new 0 0 512 640;" xml:space="preserve">
<g>
	<g>
		<g>
			<path d="M132.9,532.6H98.8c-17.3,0-31.3-14.1-31.3-31.3v-160h31.3v160l34.1,0V532.6z"/>
			<path d="M333.5,308.3c-45.7,27.7-108.1,27.7-153.7,0c-14.1,17.1-22.6,39.1-22.6,63v160.9h44.5v-92H233v92h45v-92h31.3v92h46.7
				V371.3C356.1,347.4,347.6,325.5,333.5,308.3z"/>
		</g>
		<g>
			<path d="M343.3,127.6c4.7-24.1-4.5-47.9-23.8-62.9c-13.2,9-26.1,22.2-25.8,39.2c-24.5-7.6-46.3-7.5-70.7,0
				c-2.4-15.2-15-36.6-30.7-38.4c-16,15.1-23.1,37.5-18.7,59.1l0,0c-22.2,17.4-36,41.6-36,68.5c0,52.7,53.3,95.5,119,95.5
				s119-42.8,119-95.5C375.6,167.7,363.3,144.7,343.3,127.6z"/>
			<rect x="397.4" y="179.9" width="48.4" height="31.3"/>
			<rect x="75.6" y="170.8" transform="matrix(8.699670e-03 -1 1 8.699670e-03 -105.2558 285.3696)" width="31.3" height="50"/>
		</g>
	</g>
</g>
</svg>
