<?xml version="1.0" encoding="utf-8"?>
<!-- Generator: Adobe Illustrator 25.2.1, SVG Export Plug-In . SVG Version: 6.00 Build 0)  -->
<svg version="1.1"
	 id="Layer_1" xmlns:cc="http://creativecommons.org/ns#" xmlns:dc="http://purl.org/dc/elements/1.1/" xmlns:inkscape="http://www.inkscape.org/namespaces/inkscape" xmlns:rdf="http://www.w3.org/1999/02/22-rdf-syntax-ns#" xmlns:sodipodi="http://sodipodi.sourceforge.net/DTD/sodipodi-0.dtd" xmlns:svg="http://www.w3.org/2000/svg"
	 xmlns="http://www.w3.org/2000/svg" xmlns:xlink="http://www.w3.org/1999/xlink" x="0px" y="0px" viewBox="0 0 100 125"
	 style="enable-background:new 0 0 100 125;" xml:space="preserve">
<g transform="translate(0,-952.36218)">
	<path d="M19,966.4c-6.1,0-11,4.9-11,11s4.9,11,11,11s11-4.9,11-11S25.1,966.4,19,966.4z M19,968.4c5,0,9,4,9,9s-4,9-9,9s-9-4-9-9
		S14,968.4,19,968.4z M71,992.4c-7.3,0-11.7,3.6-15,7.3v-4.3c0-0.5-0.5-1-1-1H39c-0.5,0-1,0.5-1,1v54c0,0.5,0.5,1,1,1h17
		c0.5,0,1-0.5,1-1v-30c0-2.7,0.8-5.3,2.2-7.1s3-2.9,4.8-2.9h2c1.8,0,3.5,1.1,4.8,2.9s2.2,4.4,2.2,7.1v30c0,0.5,0.5,1,1,1h17
		c0.5,0,1-0.5,1-1v-35c0-6.5-1.3-12.1-4.6-16S78.7,992.4,71,992.4z M10.8,994.4c-0.5,0.1-0.8,0.5-0.8,1v54c0,0.5,0.5,1,1,1h17
		c0.5,0,1-0.5,1-1v-54c0-0.5-0.5-1-1-1C22.3,994.4,16.5,994.4,10.8,994.4z M71,994.4c7.4,0,12,2,14.9,5.3c2.9,3.4,4.1,8.4,4.1,14.7
		v34H75v-29c0-3.1-0.9-6.1-2.5-8.3s-3.9-3.7-6.5-3.7h-2c-2.6,0-4.9,1.5-6.5,3.7s-2.5,5.2-2.5,8.3v13c-0.7,0-1.5,0-2.2,0
		c-0.5,0-1,0.6-0.9,1.1s0.6,1,1.1,0.9h2v6c-0.7,0-1.5,0-2.2,0c-0.5,0-1,0.6-0.9,1.1s0.6,1,1.1,0.9h2v6H40v-52h14v6
		c0,0.8,1.3,1.3,1.8,0.6C59.2,998.8,63.1,994.4,71,994.4z M12,996.4h15v36c-0.7,0-1.5,0-2.2,0c-0.5,0-1,0.6-0.9,1.1s0.6,1,1.1,0.9h2
		v6c-0.7,0-1.5,0-2.2,0c-0.5,0-1,0.6-0.9,1.1s0.6,1,1.1,0.9h2v6H12V996.4z"/>
</g>
</svg>
