<?xml version="1.0" encoding="utf-8"?>
<!-- Generator: Adobe Illustrator 25.2.1, SVG Export Plug-In . SVG Version: 6.00 Build 0)  -->
<svg version="1.1" id="Layer_1" xmlns="http://www.w3.org/2000/svg" xmlns:xlink="http://www.w3.org/1999/xlink" x="0px" y="0px"
	 viewBox="0 0 100 125" style="enable-background:new 0 0 100 125;" xml:space="preserve">
<g>
	<g>
		<g>
			<path d="M72.1,43.4L72.1,43.4c0,1.3-1.4,2.3-3.1,2.3H31c-1.7,0-3.1-1-3.1-2.3l0,0c0-1.3,1.4-2.3,3.1-2.3H69
				C70.8,41.1,72.1,42.1,72.1,43.4z"/>
			<path d="M67.9,40.2L67.9,40.2c0,1.4-1.6,2.6-3.5,2.6H35.6c-1.9,0-3.5-1.1-3.5-2.6l0,0c0-1.4,1.6-2.6,3.5-2.6h28.9
				C66.4,37.7,67.9,38.8,67.9,40.2z"/>
		</g>
		<path d="M50,23.7c-6.3,0-11.4,5.1-11.4,11.4h22.9C61.4,28.8,56.3,23.7,50,23.7z"/>
	</g>
	<g>
		<g>
			<path d="M69,91.6H31c-1.7,0-3.1-1-3.1-2.3l0,0c0-1.3,1.4-2.3,3.1-2.3H69c1.7,0,3.1,1,3.1,2.3l0,0C72.1,90.6,70.8,91.6,69,91.6z"
				/>
			<path d="M64.4,95H35.6c-1.9,0-3.5-1.1-3.5-2.6l0,0c0-1.4,1.6-2.6,3.5-2.6h28.9c1.9,0,3.5,1.1,3.5,2.6l0,0
				C67.9,93.9,66.4,95,64.4,95z"/>
		</g>
		<path d="M61.4,97.6H38.6c0,6.3,5.1,11.4,11.4,11.4C56.3,108.9,61.4,103.8,61.4,97.6z"/>
	</g>
	<path d="M67.1,47.8H32.9c-2.8,0-5,2.3-5,5v27.9c0,2.8,2.3,5,5,5h34.2c2.8,0,5-2.3,5-5V52.8C72.1,50,69.9,47.8,67.1,47.8z
		 M43.2,65.8v1.9v7.2h-1.9c0,2.5-1.7,4.5-3.9,4.5s-3.9-2-3.9-4.5h-1.9v-7.2v-1.9v-7.2h1.9c0-2.5,1.7-4.5,3.9-4.5
		c2.2,0,3.9,2,3.9,4.5h1.9L43.2,65.8L43.2,65.8z M55.8,65.8v1.9v7.2h-1.9c0,2.5-1.7,4.5-3.9,4.5s-3.9-2-3.9-4.5h-1.9v-7.2v-1.9v-7.2
		h1.9c0-2.5,1.7-4.5,3.9-4.5s3.9,2,3.9,4.5h1.9C55.8,58.5,55.8,65.8,55.8,65.8z M68.5,65.8v1.9v7.2h-1.9c0,2.5-1.7,4.5-3.9,4.5
		s-3.9-2-3.9-4.5h-1.9v-7.2v-1.9v-7.2h1.9c0-2.5,1.7-4.5,3.9-4.5c2.2,0,3.9,2,3.9,4.5h1.9L68.5,65.8L68.5,65.8z"/>
	<path d="M50,10.5c-3.8,0-6.9,3.1-6.9,6.9s3.1,6.9,6.9,6.9c3.8,0,6.9-3.1,6.9-6.9S53.8,10.5,50,10.5z M50,22.6
		c-2.9,0-5.2-2.3-5.2-5.2s2.3-5.2,5.2-5.2c2.9,0,5.2,2.3,5.2,5.2S52.9,22.6,50,22.6z"/>
</g>
</svg>
