<?xml version="1.0" encoding="utf-8"?>
<!-- Generator: Adobe Illustrator 25.2.1, SVG Export Plug-In . SVG Version: 6.00 Build 0)  -->
<svg version="1.1" xmlns="http://www.w3.org/2000/svg" xmlns:xlink="http://www.w3.org/1999/xlink" x="0px" y="0px"
	 viewBox="0 0 288 560" style="enable-background:new 0 0 288 560;" xml:space="preserve">
<style type="text/css">
	.st0{display:none;}
	.st1{display:inline;}
	.st2{fill:none;stroke:#000000;stroke-width:3;stroke-miterlimit:10;}
</style>
<g id="Layer_1" class="st0">
	<g class="st1">
		<path d="M87.2,392.3H41.6c-1.6,0-2.9,1.2-2.9,2.7v64.2c0,1.5,1.3,2.7,2.9,2.7h45.7c1.6,0,2.9-1.2,2.9-2.7V395
			C90.1,393.5,88.8,392.3,87.2,392.3z M50.4,450.8c0,2.3-2,4.1-4.3,3.9c-2-0.2-3.5-2.1-3.5-4.1v-46.9c0-2.1,1.5-3.9,3.5-4.1
			c2.4-0.2,4.3,1.6,4.3,3.9V450.8z M71.9,447.3c0,4.4-3.8,7.9-8.3,7.5c-3.9-0.4-6.8-3.9-6.8-7.8v-39.6c0-3.9,2.9-7.4,6.8-7.8
			c4.5-0.4,8.3,3.1,8.3,7.5V447.3z M86.2,450.8c0,2.3-2,4.1-4.3,3.9c-2-0.2-3.5-2.1-3.5-4.1v-46.9c0-2.1,1.5-3.9,3.5-4.1
			c2.4-0.2,4.3,1.6,4.3,3.9V450.8z"/>
		<path d="M38.8,391.1h17.3h16.6H90c0.7,0,1.3-0.6,1-0.9l-6.9-6.6c-0.1-0.1-0.3-0.2-0.5-0.2H74H54.8h-9.6c-0.2,0-0.4,0.1-0.5,0.2
			l-6.9,6.6C37.5,390.5,38.1,391.1,38.8,391.1z"/>
		<path d="M90,463.1H72.7H56.1H38.8c-0.7,0-1.3,0.6-1,0.9l6.9,6.6c0.1,0.1,0.3,0.2,0.5,0.2h9.6H74h9.6c0.2,0,0.4-0.1,0.5-0.2
			l6.9-6.6C91.3,463.8,90.7,463.1,90,463.1z"/>
		<path d="M47.3,382.3h34.2c0.5,0,0.9-0.3,0.9-0.7v-8.8v-0.2l-2.1-1.2L66,363l0.4-0.9l0,0l-0.1-0.2l-1.2-2.1c1.4-0.3,2.4-1.6,2.4-3
			c0-1.7-1.4-3.1-3.1-3.1c-1.7,0-3.1,1.4-3.1,3.1c0,1.5,1,2.7,2.4,3l-1.2,2.1l-0.1,0.2l0,0l0.4,0.9l-14.3,8.3l-2.1,1.2v0.2v8.8
			C46.4,381.9,46.8,382.3,47.3,382.3z M74.5,373.7c1.4,0,2.6,1.2,2.6,2.6s-1.2,2.6-2.6,2.6c-1.4,0-2.6-1.2-2.6-2.6
			S73.1,373.7,74.5,373.7z M67.8,373.7c1.4,0,2.6,1.2,2.6,2.6s-1.2,2.6-2.6,2.6c-1.4,0-2.6-1.2-2.6-2.6S66.3,373.7,67.8,373.7z
			 M63,356.7c0-0.8,0.6-1.4,1.4-1.4c0.8,0,1.4,0.6,1.4,1.4c0,0.8-0.6,1.4-1.4,1.4C63.6,358.2,63,357.5,63,356.7z M61,373.7
			c1.4,0,2.6,1.2,2.6,2.6s-1.2,2.6-2.6,2.6s-2.6-1.2-2.6-2.6S59.6,373.7,61,373.7z M54.3,373.7c1.4,0,2.6,1.2,2.6,2.6
			s-1.2,2.6-2.6,2.6c-1.4,0-2.6-1.2-2.6-2.6S52.8,373.7,54.3,373.7z"/>
		<path d="M81.5,471.9H47.3c-0.5,0-0.9,0.3-0.9,0.7v8.8v0.2l2.1,1.2l14.2,8.3l-0.4,0.9l0,0l0.1,0.2l1.6,2.8c0.1,0.2,0.4,0.2,0.6,0
			l1.6-2.8l0.1-0.2l0,0l-0.4-0.9l14.2-8.3l2.1-1.2v-0.2v-8.8C82.3,472.3,82,471.9,81.5,471.9z M54.3,480.5c-1.4,0-2.6-1.2-2.6-2.6
			s1.2-2.6,2.6-2.6c1.4,0,2.6,1.2,2.6,2.6C56.9,479.4,55.7,480.5,54.3,480.5z M61,480.5c-1.4,0-2.6-1.2-2.6-2.6s1.2-2.6,2.6-2.6
			s2.6,1.2,2.6,2.6S62.5,480.5,61,480.5z M67.8,480.5c-1.4,0-2.6-1.2-2.6-2.6s1.2-2.6,2.6-2.6c1.4,0,2.6,1.2,2.6,2.6
			C70.4,479.4,69.2,480.5,67.8,480.5z M74.5,480.5c-1.4,0-2.6-1.2-2.6-2.6s1.2-2.6,2.6-2.6c1.4,0,2.6,1.2,2.6,2.6
			S76,480.5,74.5,480.5z"/>
	</g>
	<g class="st1">
		<path d="M181.7,267.6h-77.8c-0.9,0-1.7,0.7-1.7,1.5v55.4c0,0.8,0.8,1.5,1.7,1.5h77.8c0.9,0,1.7-0.7,1.7-1.5v-55.3
			C183.4,268.4,182.6,267.6,181.7,267.6z M173.4,311c-0.4,0.6-0.9,1.1-1.4,1.5c-0.7,0.5-1.4,1.2-1.8,2l-1.2,2.1l-1.2-2.1
			c-0.5-0.8-1.1-1.5-1.8-2c-0.6-0.4-1-0.9-1.4-1.5c-0.9-1.4-0.9-3.6-0.4-5.2c-3.9,0-7.2-3.3-7.2-7.2v-3.1c0-4,3.2-7.2,7.2-7.2
			c-0.5-1.6-0.5-3.8,0.4-5.2c0.4-0.6,0.9-1.1,1.4-1.5c0.7-0.5,1.4-1.2,1.8-2l1.2-2.1l1.2,2.1c0.5,0.8,1.1,1.5,1.8,2
			c0.6,0.4,1.1,0.9,1.4,1.5c0.9,1.4,0.9,3.6,0.4,5.2c3.9,0,7.2,3.3,7.2,7.2v3.1c0,4-3.2,7.2-7.2,7.2
			C174.4,307.3,174.4,309.6,173.4,311z M147.2,311c-0.4,0.6-0.9,1.1-1.4,1.5c-0.7,0.5-1.4,1.2-1.8,2l-1.2,2.1l-1.2-2.1
			c-0.5-0.8-1.1-1.5-1.8-2c-0.6-0.4-1-0.9-1.4-1.5c-0.9-1.4-0.9-3.6-0.4-5.2c-3.9,0-7.2-3.3-7.2-7.2v-3.1c0-4,3.2-7.2,7.2-7.2
			c-0.5-1.6-0.5-3.8,0.4-5.2c0.4-0.6,0.9-1.1,1.4-1.5c0.7-0.5,1.4-1.2,1.8-2l1.2-2.1l1.2,2.1c0.5,0.8,1.1,1.5,1.8,2
			c0.6,0.4,1.1,0.9,1.4,1.5c0.9,1.4,0.9,3.6,0.4,5.2c3.9,0,7.2,3.3,7.2,7.2v3.1c0,4-3.2,7.2-7.2,7.2
			C148.2,307.3,148.2,309.6,147.2,311z M121.1,311c-0.4,0.6-0.9,1.1-1.4,1.5c-0.7,0.5-1.4,1.2-1.8,2l-1.2,2.1l-1.2-2.1
			c-0.5-0.8-1.1-1.5-1.8-2c-0.6-0.4-1-0.9-1.4-1.5c-0.9-1.4-0.9-3.6-0.4-5.2c-3.9,0-7.2-3.3-7.2-7.2v-3.1c0-4,3.2-7.2,7.2-7.2
			c-0.5-1.6-0.5-3.8,0.4-5.2c0.4-0.6,0.9-1.1,1.4-1.5c0.7-0.5,1.4-1.2,1.8-2l1.2-2.1l1.2,2.1c0.5,0.8,1.1,1.5,1.8,2
			c0.6,0.4,1.1,0.9,1.4,1.5c0.9,1.4,0.9,3.6,0.4,5.2c3.9,0,7.2,3.3,7.2,7.2v3.1c0,4-3.2,7.2-7.2,7.2C122,307.3,122,309.6,121.1,311z
			"/>
		<path d="M122.7,242h40.5c0.3,0,0.7-0.2,0.9-0.4c0.2-0.3,0.4-0.6,0.3-1c-0.7-8.1-6-15.2-13.5-18.2c-3-1.2-5.4-3.3-6.7-6.1l-0.6-1.3
			l0.3-0.1c0.9-0.4,1.6-1.3,1.6-2.3c0-0.8-0.4-1.5-1-2c1.3-0.6,2.2-1.9,2.2-3.4c0-2-1.7-3.7-3.7-3.7c-2,0-3.7,1.7-3.7,3.7
			c0,1.5,0.9,2.8,2.3,3.4c-0.6,0.5-0.9,1.1-0.9,1.9c0,1,0.6,1.9,1.6,2.3l0.3,0.1l-0.6,1.3c-1.3,2.7-3.7,4.9-6.7,6.1l0,0
			c-7.5,3-12.8,10.1-13.5,18.2c0,0.4,0.1,0.7,0.3,1C122,241.8,122.3,242,122.7,242z M142.9,205.3c1.1,0,2,0.9,2,2c0,1.1-0.9,2-2,2
			c-1.1,0-2-0.9-2-2C140.8,206.2,141.7,205.3,142.9,205.3z"/>
		<path d="M105.3,266.8h74.9c0.5,0,0.9-0.3,1-0.7c0.2-0.5,0-0.9-0.3-1.2l-15.4-13.5c-0.2-0.2-0.5-0.3-0.7-0.3h-44.1
			c-0.3,0-0.5,0.1-0.7,0.3l-15.4,13.5c-0.3,0.3-0.5,0.8-0.3,1.2S104.9,266.8,105.3,266.8z M157.1,256.4h9.3c0.1,0,0.2,0,0.2,0.1
			l4.7,4.2c0.2,0.2,0.1,0.6-0.2,0.6h-14c-0.2,0-0.4-0.2-0.4-0.4v-4.2C156.8,256.6,156.9,256.4,157.1,256.4z M154.6,256.8v4.2
			c0,0.2-0.2,0.4-0.4,0.4h-22.8c-0.2,0-0.4-0.2-0.4-0.4v-4.2c0-0.2,0.2-0.4,0.4-0.4h22.8C154.4,256.4,154.6,256.6,154.6,256.8z
			 M128.9,256.8v4.2c0,0.2-0.2,0.4-0.4,0.4h-14c-0.3,0-0.5-0.4-0.2-0.6l4.7-4.2c0.1-0.1,0.2-0.1,0.2-0.1h9.3
			C128.7,256.4,128.9,256.6,128.9,256.8z"/>
		<path d="M121.5,250.7h42.6c0.7,0,1.3-0.6,1.3-1.3v-5.6c0-0.7-0.6-1.3-1.3-1.3h-42.6c-0.7,0-1.3,0.6-1.3,1.3v5.6
			C120.2,250.1,120.8,250.7,121.5,250.7z"/>
		<path d="M180.3,326.8h-75c-0.5,0-0.9,0.3-1,0.7s0,0.9,0.3,1.2l15.4,13.5c0.2,0.2,0.5,0.3,0.7,0.3h44.1c0.3,0,0.5-0.1,0.7-0.3
			l15.4-13.5c0.3-0.3,0.5-0.8,0.3-1.2C181.2,327.1,180.7,326.8,180.3,326.8z M128.5,336.7h-9.3c-0.1,0-0.2,0-0.2-0.1l-4.7-4.2
			c-0.2-0.2-0.1-0.6,0.2-0.6h14c0.2,0,0.4,0.2,0.4,0.4v4.2C128.9,336.6,128.7,336.7,128.5,336.7z M131.1,336.4v-4.2
			c0-0.2,0.2-0.4,0.4-0.4h22.8c0.2,0,0.4,0.2,0.4,0.4v4.2c0,0.2-0.2,0.4-0.4,0.4h-22.8C131.2,336.7,131.1,336.6,131.1,336.4z
			 M156.8,336.4v-4.2c0-0.2,0.2-0.4,0.4-0.4h14c0.3,0,0.5,0.4,0.2,0.6l-4.7,4.2c-0.1,0.1-0.2,0.1-0.2,0.1h-9.3
			C156.9,336.7,156.8,336.6,156.8,336.4z"/>
		<path d="M164.1,342.8h-42.7c-0.7,0-1.3,0.6-1.3,1.3v5.6c0,0.7,0.6,1.3,1.3,1.3h42.6c0.7,0,1.3-0.6,1.3-1.3v-5.6
			C165.5,343.4,164.9,342.8,164.1,342.8z"/>
		<path d="M163,351.7h-40.5c-0.3,0-0.7,0.2-0.9,0.4c-0.2,0.3-0.4,0.6-0.3,1c0.7,8.1,6,15.2,13.6,18.2c3,1.2,5.4,3.3,6.7,6.1l0.8,1.7
			l-0.3,0.1c-0.8,0.3-1.3,1.1-1.3,1.9c0,0.8,0.4,1.4,1,1.8c-0.9,0.4-1.6,1.3-1.6,2.4c0,1.4,1.2,2.6,2.6,2.6s2.6-1.2,2.6-2.6
			c0-1.1-0.6-2-1.6-2.4c0.6-0.4,1-1,1-1.8c0-0.9-0.5-1.6-1.3-1.9l-0.3-0.1l0.8-1.7c1.3-2.7,3.7-4.9,6.7-6.1
			c7.5-3,12.9-10.1,13.6-18.2c0-0.4-0.1-0.7-0.3-1C163.7,351.8,163.4,351.7,163,351.7z"/>
	</g>
	<path class="st1" d="M255.1,372.1h-51.3c-1.8,0-3.2,1.2-3.2,2.6v61.7c0,1.4,1.4,2.6,3.2,2.6h51.3c1.8,0,3.2-1.2,3.2-2.6v-61.7
		C258.3,373.3,256.9,372.1,255.1,372.1z M213.8,428.3c0,2.2-2.2,4-4.9,3.7c-2.3-0.2-3.9-2-3.9-4V383c0-2,1.7-3.8,3.9-4
		c2.6-0.2,4.9,1.5,4.9,3.7V428.3z M237.9,424.9c0,4.2-4.2,7.6-9.3,7.2c-4.4-0.4-7.6-3.7-7.6-7.5v-38c0-3.8,3.2-7.1,7.6-7.5
		c5-0.4,9.3,3,9.3,7.2V424.9z M253.9,428.3c0,2.2-2.2,4-4.9,3.7c-2.3-0.2-3.9-2-3.9-4V383c0-2,1.7-3.8,3.9-4
		c2.6-0.2,4.9,1.5,4.9,3.7V428.3z"/>
	<path class="st1" d="M203.5,369.5h51.8c0.4,0,0.9-0.2,1.2-0.6c0.3-0.4,0.5-0.8,0.4-1.4c-0.9-11.1-7.7-20.9-17.3-25
		c-3.8-1.6-6.9-4.6-8.6-8.4l-0.8-1.8l0.3-0.2c1.2-0.5,2-1.7,2-3.1c0-1.1-0.5-2.1-1.3-2.7c1.6-0.8,2.8-2.6,2.8-4.6
		c0-2.8-2.1-5.1-4.7-5.1c-2.6,0-4.7,2.3-4.7,5.1c0,2.1,1.2,3.9,2.9,4.7c-0.7,0.6-1.2,1.6-1.2,2.6c0,1.4,0.8,2.6,2,3.1l0.3,0.2
		l-0.8,1.8c-1.7,3.8-4.8,6.7-8.6,8.4l0,0c-9.7,4.1-16.4,13.9-17.3,25c0,0.5,0.1,1,0.4,1.4C202.7,369.3,203.1,369.5,203.5,369.5z
		 M229.4,319c1.5,0,2.6,1.3,2.6,2.8c0,1.6-1.2,2.8-2.6,2.8s-2.6-1.3-2.6-2.8C226.7,320.3,227.9,319,229.4,319z"/>
	<path class="st1" d="M254.9,440.5h-52.1c-0.3,0-0.6,0.3-0.7,0.9c-0.1,0.5,0,1.1,0.2,1.4l10.7,16c0.1,0.2,0.3,0.3,0.5,0.3h30.7
		c0.2,0,0.4-0.1,0.5-0.3l10.7-16c0.2-0.4,0.3-0.9,0.2-1.4C255.5,440.9,255.2,440.5,254.9,440.5z M218.9,452.3h-6.5
		c-0.1,0-0.1,0-0.2-0.1l-3.3-5c-0.2-0.3-0.1-0.8,0.2-0.8h9.7c0.1,0,0.3,0.2,0.3,0.4v5C219.2,452.1,219.1,452.3,218.9,452.3z
		 M220.7,451.9v-5c0-0.3,0.1-0.4,0.3-0.4h15.8c0.2,0,0.3,0.2,0.3,0.4v5c0,0.3-0.1,0.4-0.3,0.4H221
		C220.8,452.3,220.7,452.1,220.7,451.9z M238.5,451.9v-5c0-0.2,0.1-0.4,0.3-0.4h9.7c0.2,0,0.3,0.5,0.2,0.8l-3.2,5
		c-0.1,0.1-0.1,0.1-0.2,0.1h-6.5C238.6,452.3,238.5,452.1,238.5,451.9z"/>
</g>
<g id="Layer_2">
	<path class="st2" d="M142.7,72.3h2.6c2.5,0,4.5-2,4.5-4.5v-11c0-2.5-2-4.5-4.5-4.5h-2.6c-2.5,0-4.5,2-4.5,4.5v11
		C138.2,70.3,140.2,72.3,142.7,72.3z"/>
	<path class="st2" d="M142.6,99.2h2.8c2.5,0,4.6-2,4.6-4.6V83.8c0-2.5-2-4.6-4.6-4.6h-2.8c-2.5,0-4.6,2-4.6,4.6v10.9
		C138,97.2,140.1,99.2,142.6,99.2z"/>
	<path class="st2" d="M142.5,127.3h2.8c2.5,0,4.6-2,4.6-4.6v-10.9c0-2.5-2-4.6-4.6-4.6h-2.8c-2.5,0-4.6,2-4.6,4.6v10.9
		C137.9,125.3,139.9,127.3,142.5,127.3z"/>
	<path class="st2" d="M142.5,155.4h2.8c2.5,0,4.6-2,4.6-4.6V140c0-2.5-2-4.6-4.6-4.6h-2.8c-2.5,0-4.6,2-4.6,4.6v10.9
		C137.9,153.4,139.9,155.4,142.5,155.4z"/>
	<path class="st2" d="M142.5,181.1h2.8c2.5,0,4.6-2,4.6-4.6v-10.9c0-2.5-2-4.6-4.6-4.6h-2.8c-2.5,0-4.6,2-4.6,4.6v10.9
		C137.9,179.1,139.9,181.1,142.5,181.1z"/>
	<path class="st2" d="M142.4,206.8h2.8c2.5,0,4.6-2,4.6-4.6v-10.9c0-2.5-2-4.6-4.6-4.6h-2.8c-2.5,0-4.6,2-4.6,4.6v10.9
		C137.8,204.8,139.9,206.8,142.4,206.8z"/>
	<path class="st2" d="M144.1,190.6c0.5-13.6,0.5-13.6,0.5-13.6"/>
	<path class="st2" d="M143.3,164.3c0.5-12.8,0.5-12.8,0.5-12.8"/>
	<path class="st2" d="M143.3,139.4c1-17.5,1-17.5,1-17.5"/>
	<path class="st2" d="M143.6,82.4c1-13.3,1-13.3,1-13.3"/>
	<path class="st2" d="M143.3,110.6c0.5-15.7,0.5-15.7,0.5-15.7"/>
	<path class="st2" d="M63,221h2.6c2.5,0,4.5-2,4.5-4.5v-11c0-2.5-2-4.5-4.5-4.5H63c-2.5,0-4.5,2-4.5,4.5v11
		C58.5,219,60.5,221,63,221z"/>
	<path class="st2" d="M62.9,248h2.8c2.5,0,4.6-2,4.6-4.6v-10.9c0-2.5-2-4.6-4.6-4.6h-2.8c-2.5,0-4.6,2-4.6,4.6v10.9
		C58.3,245.9,60.4,248,62.9,248z"/>
	<path class="st2" d="M62.8,276h2.8c2.5,0,4.6-2,4.6-4.6v-10.9c0-2.5-2-4.6-4.6-4.6h-2.8c-2.5,0-4.6,2-4.6,4.6v10.9
		C58.2,274,60.3,276,62.8,276z"/>
	<path class="st2" d="M62.8,304.1h2.8c2.5,0,4.6-2,4.6-4.6v-10.9c0-2.5-2-4.6-4.6-4.6h-2.8c-2.5,0-4.6,2-4.6,4.6v10.9
		C58.2,302.1,60.3,304.1,62.8,304.1z"/>
	<path class="st2" d="M62.8,329.9h2.8c2.5,0,4.6-2,4.6-4.6v-10.9c0-2.5-2-4.6-4.6-4.6h-2.8c-2.5,0-4.6,2-4.6,4.6v10.9
		C58.2,327.8,60.3,329.9,62.8,329.9z"/>
	<path class="st2" d="M62.7,355.6h2.8c2.5,0,4.6-2,4.6-4.6v-10.9c0-2.5-2-4.6-4.6-4.6h-2.8c-2.5,0-4.6,2-4.6,4.6V351
		C58.2,353.5,60.2,355.6,62.7,355.6z"/>
	<path class="st2" d="M64.4,339.4c0.5-13.6,0.5-13.6,0.5-13.6"/>
	<path class="st2" d="M63.7,313.1c0.5-12.8,0.5-12.8,0.5-12.8"/>
	<path class="st2" d="M63.6,288.1c1-17.5,1-17.5,1-17.5"/>
	<path class="st2" d="M63.9,231.2c1-13.3,1-13.3,1-13.3"/>
	<path class="st2" d="M63.7,259.4c0.5-15.7,0.5-15.7,0.5-15.7"/>
	<path class="st2" d="M63.4,88.1H66c2.5,0,4.5-2,4.5-4.5v-11c0-2.5-2-4.5-4.5-4.5h-2.6c-2.5,0-4.5,2-4.5,4.5v11
		C58.9,86.1,60.9,88.1,63.4,88.1z"/>
	<path class="st2" d="M63.3,115h2.8c2.5,0,4.6-2,4.6-4.6V99.6c0-2.5-2-4.6-4.6-4.6h-2.8c-2.5,0-4.6,2-4.6,4.6v10.9
		C58.7,112.9,60.8,115,63.3,115z"/>
	<path class="st2" d="M63.2,143.1H66c2.5,0,4.6-2,4.6-4.6v-10.9c0-2.5-2-4.6-4.6-4.6h-2.8c-2.5,0-4.6,2-4.6,4.6v10.9
		C58.6,141,60.7,143.1,63.2,143.1z"/>
	<path class="st2" d="M63.2,171.2H66c2.5,0,4.6-2,4.6-4.6v-10.9c0-2.5-2-4.6-4.6-4.6h-2.8c-2.5,0-4.6,2-4.6,4.6v10.9
		C58.6,169.1,60.7,171.2,63.2,171.2z"/>
	<path class="st2" d="M63.2,196.9H66c2.5,0,4.6-2,4.6-4.6v-10.9c0-2.5-2-4.6-4.6-4.6h-2.8c-2.5,0-4.6,2-4.6,4.6v10.9
		C58.6,194.8,60.7,196.9,63.2,196.9z"/>
	<path class="st2" d="M64.8,206.4c0.5-13.6,0.5-13.6,0.5-13.6"/>
	<path class="st2" d="M64.1,180.1c0.5-12.8,0.5-12.8,0.5-12.8"/>
	<path class="st2" d="M64,155.1c1-17.5,1-17.5,1-17.5"/>
	<path class="st2" d="M64.3,98.2c1-13.3,1-13.3,1-13.3"/>
	<path class="st2" d="M64.1,126.4c0.5-15.7,0.5-15.7,0.5-15.7"/>
	<path class="st2" d="M227.9,184.9h2.6c2.5,0,4.5-2,4.5-4.5v-11c0-2.5-2-4.5-4.5-4.5h-2.6c-2.5,0-4.5,2-4.5,4.5v11
		C223.5,182.9,225.5,184.9,227.9,184.9z"/>
	<path class="st2" d="M227.8,211.8h2.8c2.5,0,4.6-2,4.6-4.6v-10.9c0-2.5-2-4.6-4.6-4.6h-2.8c-2.5,0-4.6,2-4.6,4.6v10.9
		C223.3,209.8,225.3,211.8,227.8,211.8z"/>
	<path class="st2" d="M227.7,239.9h2.8c2.5,0,4.6-2,4.6-4.6v-10.9c0-2.5-2-4.6-4.6-4.6h-2.8c-2.5,0-4.6,2-4.6,4.6v10.9
		C223.2,237.9,225.2,239.9,227.7,239.9z"/>
	<path class="st2" d="M227.7,268h2.8c2.5,0,4.6-2,4.6-4.6v-10.9c0-2.5-2-4.6-4.6-4.6h-2.8c-2.5,0-4.6,2-4.6,4.6v10.9
		C223.2,266,225.2,268,227.7,268z"/>
	<path class="st2" d="M227.7,293.7h2.8c2.5,0,4.6-2,4.6-4.6v-10.9c0-2.5-2-4.6-4.6-4.6h-2.8c-2.5,0-4.6,2-4.6,4.6v10.9
		C223.2,291.7,225.2,293.7,227.7,293.7z"/>
	<path class="st2" d="M227.7,319.5h2.8c2.5,0,4.6-2,4.6-4.6v-10.9c0-2.5-2-4.6-4.6-4.6h-2.8c-2.5,0-4.6,2-4.6,4.6v10.9
		C223.1,317.4,225.1,319.5,227.7,319.5z"/>
	<path class="st2" d="M229.3,303.3c0.5-13.6,0.5-13.6,0.5-13.6"/>
	<path class="st2" d="M228.6,277c0.5-12.8,0.5-12.8,0.5-12.8"/>
	<path class="st2" d="M228.5,252c1-17.5,1-17.5,1-17.5"/>
	<path class="st2" d="M228.9,195.1c1-13.3,1-13.3,1-13.3"/>
	<path class="st2" d="M228.6,223.2c0.5-15.7,0.5-15.7,0.5-15.7"/>
	<path class="st2" d="M228.4,51.9h2.6c2.5,0,4.5-2,4.5-4.5v-11c0-2.5-2-4.5-4.5-4.5h-2.6c-2.5,0-4.5,2-4.5,4.5v11
		C223.9,49.9,225.9,51.9,228.4,51.9z"/>
	<path class="st2" d="M228.2,78.9h2.8c2.5,0,4.6-2,4.6-4.6V63.4c0-2.5-2-4.6-4.6-4.6h-2.8c-2.5,0-4.6,2-4.6,4.6v10.9
		C223.7,76.8,225.7,78.9,228.2,78.9z"/>
	<path class="st2" d="M228.1,106.9h2.8c2.5,0,4.6-2,4.6-4.6V91.5c0-2.5-2-4.6-4.6-4.6h-2.8c-2.5,0-4.6,2-4.6,4.6v10.9
		C223.6,104.9,225.6,106.9,228.1,106.9z"/>
	<path class="st2" d="M228.1,135h2.8c2.5,0,4.6-2,4.6-4.6v-10.9c0-2.5-2-4.6-4.6-4.6h-2.8c-2.5,0-4.6,2-4.6,4.6v10.9
		C223.6,133,225.6,135,228.1,135z"/>
	<path class="st2" d="M228.1,160.8h2.8c2.5,0,4.6-2,4.6-4.6v-10.9c0-2.5-2-4.6-4.6-4.6h-2.8c-2.5,0-4.6,2-4.6,4.6v10.9
		C223.6,158.7,225.6,160.8,228.1,160.8z"/>
	<path class="st2" d="M229.7,170.3c0.5-13.6,0.5-13.6,0.5-13.6"/>
	<path class="st2" d="M229,144c0.5-12.8,0.5-12.8,0.5-12.8"/>
	<path class="st2" d="M229,119c1-17.5,1-17.5,1-17.5"/>
	<path class="st2" d="M229.3,62.1c1-13.3,1-13.3,1-13.3"/>
	<path class="st2" d="M229,90.3c0.5-15.7,0.5-15.7,0.5-15.7"/>
	<path class="st2" d="M228.2,27h2.8c2.5,0,4.6-2,4.6-4.6V11.6c0-2.5-2-4.6-4.6-4.6h-2.8c-2.5,0-4.6,2-4.6,4.6v10.9
		C223.6,25,225.7,27,228.2,27z"/>
	<path class="st2" d="M229.8,36.5c0.5-13.6,0.5-13.6,0.5-13.6"/>
	<path class="st2" d="M229.1,10.2c0.5-12.8,0.5-12.8,0.5-12.8"/>
	<path class="st2" d="M143.4,19.7h2.8c2.5,0,4.6-2,4.6-4.6V4.3c0-2.5-2-4.6-4.6-4.6h-2.8c-2.5,0-4.6,2-4.6,4.6v10.9
		C138.9,17.7,140.9,19.7,143.4,19.7z"/>
	<path class="st2" d="M143.4,47.8h2.8c2.5,0,4.6-2,4.6-4.6V32.4c0-2.5-2-4.6-4.6-4.6h-2.8c-2.5,0-4.6,2-4.6,4.6v10.9
		C138.9,45.8,140.9,47.8,143.4,47.8z"/>
	<path class="st2" d="M144.3,56.7c0.5-12.8,0.5-12.8,0.5-12.8"/>
	<path class="st2" d="M144.3,31.8c1-17.5,1-17.5,1-17.5"/>
	<path class="st2" d="M64.1-19h2.6c2.5,0,4.5-2,4.5-4.5v-11c0-2.5-2-4.5-4.5-4.5h-2.6c-2.5,0-4.5,2-4.5,4.5v11
		C59.6-21,61.7-19,64.1-19z"/>
	<path class="st2" d="M64,7.9h2.8c2.5,0,4.6-2,4.6-4.6V-7.5c0-2.5-2-4.6-4.6-4.6H64c-2.5,0-4.6,2-4.6,4.6V3.3
		C59.5,5.9,61.5,7.9,64,7.9z"/>
	<path class="st2" d="M63.9,36h2.8c2.5,0,4.6-2,4.6-4.6V20.6c0-2.5-2-4.6-4.6-4.6h-2.8c-2.5,0-4.6,2-4.6,4.6v10.9
		C59.3,33.9,61.4,36,63.9,36z"/>
	<path class="st2" d="M63.9,64.1h2.8c2.5,0,4.6-2,4.6-4.6V48.7c0-2.5-2-4.6-4.6-4.6h-2.8c-2.5,0-4.6,2-4.6,4.6v10.9
		C59.3,62,61.4,64.1,63.9,64.1z"/>
	<path class="st2" d="M64.8,73c0.5-12.8,0.5-12.8,0.5-12.8"/>
	<path class="st2" d="M64.7,48c1-17.5,1-17.5,1-17.5"/>
	<path class="st2" d="M65-8.9c1-13.3,1-13.3,1-13.3"/>
	<path class="st2" d="M64.8,19.3c0.5-15.7,0.5-15.7,0.5-15.7"/>
</g>
</svg>
