<?xml version="1.0" encoding="UTF-8" standalone="no"?>
<svg
   xmlns:dc="http://purl.org/dc/elements/1.1/"
   xmlns:cc="http://creativecommons.org/ns#"
   xmlns:rdf="http://www.w3.org/1999/02/22-rdf-syntax-ns#"
   xmlns:svg="http://www.w3.org/2000/svg"
   xmlns="http://www.w3.org/2000/svg"
   xmlns:sodipodi="http://sodipodi.sourceforge.net/DTD/sodipodi-0.dtd"
   xmlns:inkscape="http://www.inkscape.org/namespaces/inkscape"
   width="350mm"
   height="210mm"
   viewBox="0 0 350 210"
   version="1.1"
   id="svg1434"
   inkscape:version="1.0.1 (3bc2e813f5, 2020-09-07)"
   sodipodi:docname="top-sunflowers.svg">
  <defs
     id="defs1428">
    <clipPath
       clipPathUnits="userSpaceOnUse"
       id="clipPath18">
      <path
         d="M 0,600.949 H 847.559 V 0 H 0 Z"
         id="path16"
         inkscape:connector-curvature="0" />
    </clipPath>
    <linearGradient
       id="a"
       x1="104.73"
       x2="494.51999"
       y1="335.72"
       y2="895.84003"
       gradientUnits="userSpaceOnUse">
      <stop
         stop-color="#e00"
         offset="0"
         id="stop2" />
      <stop
         stop-color="#9a0000"
         offset="1"
         id="stop4" />
    </linearGradient>
  </defs>
  <sodipodi:namedview
     id="base"
     pagecolor="#ffffff"
     bordercolor="#666666"
     borderopacity="1.0"
     inkscape:pageopacity="0.0"
     inkscape:pageshadow="2"
     inkscape:zoom="0.35"
     inkscape:cx="400"
     inkscape:cy="560"
     inkscape:document-units="mm"
     inkscape:current-layer="layer6"
     inkscape:document-rotation="0"
     showgrid="false"
     inkscape:snap-page="false"
     width="298mm"
     showguides="false"
     inkscape:window-width="1300"
     inkscape:window-height="1041"
     inkscape:window-x="372"
     inkscape:window-y="16"
     inkscape:window-maximized="0" />
  <metadata
     id="metadata1431">
    <rdf:RDF>
      <cc:Work
         rdf:about="">
        <dc:format>image/svg+xml</dc:format>
        <dc:type
           rdf:resource="http://purl.org/dc/dcmitype/StillImage" />
        <dc:title></dc:title>
      </cc:Work>
    </rdf:RDF>
  </metadata>
  <g
     inkscape:groupmode="layer"
     id="layer6"
     inkscape:label="Layer 2"
     style="display:inline">
    <path
       inkscape:connector-curvature="0"
       style="display:inline;fill:#ffcc00;fill-rule:evenodd;stroke:none"
       id="path1713"
       d="m 430.46,242.9 c -7.8054,2.0162 -26.509,49.301 -27.649,66 -0.55454,12.787 -5.9989,31.094 -1.1223,42.972 5.1888,10.956 16.454,29.31 32.092,26.992 17.992,-5.2735 21.142,-25.04 22.099,-36.909 0.73075,-12.97 -6.6216,-25.086 -11.477,-37.154 -5.5531,-6.8612 -17.248,-28.573 -14.552,-49.965 0.42124,-3.3426 9.0949,-9.12 0.61011,-11.935 z"
       transform="matrix(-0.29635995,0,0,0.25429546,191.44027,-12.027567)" />
    <path
       inkscape:connector-curvature="0"
       style="display:inline;fill:#ffcc00;fill-rule:evenodd;stroke:none"
       id="path1715"
       d="m 374.8,253 c -19.492,2.2608 -19.858,34.439 -20.923,48.523 -0.68946,12.09 2.1639,23.749 6.241,34.876 3.6035,9.7002 1.7908,21.136 9.0633,28.988 4.4438,4.7294 9.8233,9.0586 16.73,11.147 3.9058,1.1146 8.4958,1.1748 12.536,-0.57588 5.0193,-2.1436 8.4236,-6.3762 10.554,-10.631 3.2255,-6.4069 4.3173,-13.253 4.6216,-19.921 0.40232,-10.905 -11.219,-18.039 -14.714,-28.159 -6.3829,-12.344 -16.014,-37.285 -24.171,-54.522 -1.1485,-2.4268 2.4921,-9.6877 0.0632,-9.726 z"
       transform="matrix(-0.29635995,0,0,0.25429546,191.44027,-12.027567)" />
    <path
       inkscape:connector-curvature="0"
       style="display:inline;fill:#ffcc00;fill-rule:evenodd;stroke:none"
       id="path1717"
       d="m 520.85,248.32 c -26.732,-7.6252 -59.537,27.34 -65.297,43.056 -4.1059,12.123 -14.449,28.179 -13.086,40.946 1.9205,11.969 7.6083,32.74 23.27,34.885 18.749,-0.0357 27.297,-18.135 31.532,-29.263 4.3261,-12.249 0.6523,-25.937 -0.63693,-38.881 -3.2705,-8.1645 0.56573,-35.156 11.266,-44.633 4.9501,-4.3845 15.299,-5.6058 12.952,-6.109 z"
       transform="matrix(-0.29635995,0,0,0.25429546,191.44027,-12.027567)" />
    <path
       inkscape:connector-curvature="0"
       style="display:inline;fill:#ffcc00;fill-rule:evenodd;stroke:none"
       id="path1719"
       d="m 577.9,271.54 c -7.1587,-3.7072 -55.815,19.241 -67.808,30.918 -8.9464,9.1535 -25.218,19.154 -29.512,31.255 -3.4466,11.622 -7.3047,32.809 5.8882,41.518 16.919,8.0789 32.456,-4.5405 41.089,-12.742 9.1995,-9.1719 11.809,-23.102 16.246,-35.33 0.47761,-7.1836 14.083,-27.089 20.532,-41.988 3.3403,-7.7173 16.883,-11.063 13.565,-13.631 z"
       transform="matrix(-0.29635995,0,0,0.25429546,191.44027,-12.027567)" />
    <path
       inkscape:connector-curvature="0"
       style="display:inline;fill:#ffcc00;fill-rule:evenodd;stroke:none"
       id="path1721"
       d="m 324.04,260.82 c -17.398,4.2362 -15.089,37.84 -16.154,51.924 -0.68946,12.09 2.1638,23.749 6.241,34.876 3.6035,9.7002 1.7908,21.136 9.0633,28.988 4.4438,4.7294 9.8233,9.0586 16.73,11.147 3.9058,1.1146 8.4958,1.1748 12.536,-0.57588 5.0193,-2.1436 8.4236,-6.3762 10.554,-10.631 3.2255,-6.4069 4.3172,-13.253 4.6216,-19.921 0.40233,-10.905 -11.219,-18.039 -14.714,-28.159 -6.2552,-12.097 -26.591,-36.024 -31.567,-56.649 -0.75499,-3.1288 5.2723,-10.404 2.6904,-11 z"
       transform="matrix(-0.29635995,0,0,0.25429546,191.44027,-12.027567)" />
    <path
       inkscape:connector-curvature="0"
       style="display:inline;fill:#ffcc00;fill-rule:evenodd;stroke:none"
       id="path1723"
       d="m 270.22,284.45 c -2.2634,15.044 -0.008,31.368 1.116,45.448 1.187,12.051 5.8076,23.129 11.555,33.493 5.0591,9.0269 5.0353,20.605 13.434,27.24 5.1212,3.9859 11.105,7.4318 18.252,8.4278 4.0311,0.49764 8.5753,-0.15212 12.296,-2.506 4.6278,-2.8935 7.3372,-7.6012 8.7843,-12.135 2.1968,-6.8284 2.2175,-13.761 1.4878,-20.396 -1.2876,-10.836 -13.872,-16.089 -18.889,-25.547 -9.4634,-12.915 -29.819,-56.58 -48.036,-54.025 z"
       transform="matrix(-0.29635995,0,0,0.25429546,191.44027,-12.027567)" />
    <path
       inkscape:connector-curvature="0"
       style="display:inline;fill:#ffcc00;fill-rule:evenodd;stroke:none"
       id="path1725"
       d="m 198.61,323.76 c 5.4286,-4.7124 52.139,7.7298 64.879,16.357 9.5942,6.8453 25.689,13.155 31.865,23.56 5.3462,10.115 12.997,28.992 3.3754,39.41 -12.969,10.507 -28.963,1.646 -38.093,-4.376 -9.8166,-6.8168 -14.91,-19.214 -21.236,-29.711 -1.8767,-6.5496 -17.687,-22.488 -26.295,-35.09 -4.4585,-6.5274 -16.84,-7.1812 -14.496,-10.15 z"
       transform="matrix(-0.29635995,0,0,0.25429546,191.44027,-12.027567)" />
    <path
       inkscape:connector-curvature="0"
       style="display:inline;fill:#ffcc00;fill-rule:evenodd;stroke:none"
       id="path1727"
       d="m 142.79,377.43 c 3.8773,-7.068 57.066,-15.134 73.531,-12.124 12.53,2.6134 31.614,1.8477 41.924,9.5006 9.3394,7.7283 24.352,23.169 18.252,37.753 -9.5441,16.138 -29.478,14.32 -41.216,12.323 -12.75,-2.4876 -22.681,-12.599 -33.18,-20.278 -4.4005,-5.6981 -26.791,-14.641 -40.45,-23.418 -7.0747,-4.5456 -20.184,0.22467 -18.86,-3.757 z"
       transform="matrix(-0.29635995,0,0,0.25429546,191.44027,-12.027567)" />
    <path
       inkscape:connector-curvature="0"
       style="display:inline;fill:#ffcc00;fill-rule:evenodd;stroke:none"
       id="path1729"
       d="m 128.24,415.47 c 3.8773,-7.068 57.066,-15.134 73.531,-12.124 12.53,2.6134 31.614,1.8477 41.924,9.5006 9.3394,7.7283 24.352,23.169 18.252,37.753 -9.5441,16.138 -29.478,14.32 -41.216,12.323 -12.75,-2.4876 -22.681,-12.599 -33.18,-20.278 -4.4005,-5.6981 -26.791,-14.641 -40.45,-23.418 -7.0747,-4.5456 -20.184,0.22466 -18.86,-3.757 z"
       transform="matrix(-0.29635995,0,0,0.25429546,191.44027,-12.027567)" />
    <path
       inkscape:connector-curvature="0"
       style="display:inline;fill:#aa8800;fill-rule:evenodd;stroke:none"
       id="path1731"
       d="m 471.43,445.22 a 142.86,47.143 0 1 1 -285.71,0 142.86,47.143 0 1 1 285.71,0 z"
       transform="matrix(-0.28350681,-0.07408135,-0.08633558,0.24326667,211.5234,5.5915483)" />
    <path
       inkscape:connector-curvature="0"
       style="display:inline;fill:#ffcc00;fill-rule:evenodd;stroke:none"
       id="path1733"
       d="m 573.33,305.78 c -7.1587,-3.7072 -55.815,19.241 -67.808,30.918 -8.9464,9.1535 -25.218,19.154 -29.512,31.255 -3.4466,11.622 -7.3047,32.809 5.8882,41.518 16.919,8.0789 32.456,-4.5405 41.089,-12.742 9.1995,-9.1719 11.809,-23.102 16.246,-35.33 0.47762,-7.1836 14.083,-27.089 20.532,-41.988 3.3403,-7.7173 16.883,-11.063 13.565,-13.631 z"
       transform="matrix(-0.29635995,0,0,0.25429546,191.44027,-12.027567)" />
    <path
       inkscape:connector-curvature="0"
       style="display:inline;fill:#ffcc00;fill-rule:evenodd;stroke:none"
       id="path1735"
       d="m 528.28,345.56 c -5.8571,-3.0188 -45.709,15.75 -55.537,25.289 -7.3319,7.4773 -20.661,15.652 -24.187,25.53 -2.8318,9.4868 -6.0088,26.779 4.7837,33.874 13.843,6.5776 26.574,-3.7337 33.648,-10.434 7.5391,-7.4925 9.6874,-18.862 13.331,-28.844 0.39732,-5.8623 11.553,-22.117 16.845,-34.281 2.7413,-6.3004 13.831,-9.0426 11.116,-11.135 z"
       transform="matrix(-0.29635995,0,0,0.25429546,191.44027,-12.027567)" />
    <path
       inkscape:connector-curvature="0"
       style="display:inline;fill:#ffcc00;fill-rule:evenodd;stroke:none"
       id="path1737"
       d="m 201.48,426.76 c 3.1803,-5.771 28.131,-9.723 41.607,-7.2813 10.255,2.1215 25.878,1.4799 34.312,7.7157 7.6387,6.2982 19.915,18.885 14.909,30.791 -7.8274,13.177 -24.144,11.711 -33.752,10.092 -10.436,-2.0187 -18.556,-10.261 -27.145,-16.518 -3.5974,-4.6458 -16.245,-12.905 -27.419,-20.055 -5.7876,-3.703 -3.5995,-1.4946 -2.5122,-4.7448 z"
       transform="matrix(-0.29635995,0,0,0.25429546,191.44027,-12.027567)" />
    <path
       inkscape:connector-curvature="0"
       style="display:inline;fill:#502d16;fill-rule:evenodd;stroke:none"
       id="path1739"
       d="m 471.43,445.22 a 142.86,47.143 0 1 1 -285.71,0 142.86,47.143 0 1 1 285.71,0 z"
       transform="matrix(-0.20210563,-0.0479881,-0.03689681,0.11316656,162.56711,51.396265)" />
    <path
       inkscape:connector-curvature="0"
       style="display:inline;fill:#ffcc00;fill-rule:evenodd;stroke:none"
       id="path1741"
       d="m 264.04,430.41 c 3.1803,-5.771 13.602,-15.752 27.078,-13.31 10.255,2.1215 25.878,1.4799 34.312,7.7157 7.6387,6.2982 19.915,18.885 14.909,30.791 -7.8274,13.177 -24.144,11.711 -33.752,10.092 -10.436,-2.0187 -18.556,-10.261 -27.145,-16.518 -7.3101,-9.4269 -17.662,-12.589 -15.402,-18.771 z"
       transform="matrix(-0.29635995,0,0,0.25429546,191.44027,-12.027567)" />
    <path
       inkscape:connector-curvature="0"
       style="display:inline;fill:#ffcc00;fill-rule:evenodd;stroke:none"
       id="path1743"
       d="m 308.74,433.92 c 2.412,-5.537 13.309,-18.649 24.804,-15.604 8.7598,2.5769 22.166,-2.6164 29.583,3.9291 6.7485,6.5693 17.711,19.556 14.048,31.053 -5.9849,12.616 -19.832,10.398 -28.022,8.3467 -8.9073,-2.4841 -16.155,-10.992 -23.704,-17.566 -6.6193,-9.6372 -18.326,-4.1738 -16.71,-10.159 z"
       transform="matrix(-0.29635995,0,0,0.25429546,191.44027,-12.027567)" />
    <path
       inkscape:connector-curvature="0"
       style="display:inline;fill:#ffcc00;fill-rule:evenodd;stroke:none"
       id="path1745"
       d="m 470.94,370.21 c -5.8571,-3.0188 -28.776,7.6068 -38.603,17.145 -7.3319,7.4773 -20.661,15.653 -24.187,25.53 -2.8318,9.4868 -6.0088,26.779 4.7837,33.874 13.843,6.5776 26.574,-3.7337 33.648,-10.434 7.5391,-7.4925 9.6874,-18.862 13.331,-28.844 0.39732,-5.8623 6.2945,-19.769 11.587,-31.933 2.7413,-6.3004 2.1555,-3.2471 -0.5588,-5.3397 z"
       transform="matrix(-0.29635995,0,0,0.25429546,191.44027,-12.027567)" />
    <path
       inkscape:connector-curvature="0"
       style="display:inline;fill:#ffcc00;fill-rule:evenodd;stroke:none"
       id="path1747"
       d="m 393.12,390.34 c -18.517,13.523 -12.246,18.589 -17.076,28.863 -3.9729,9.8343 -15.7,28.984 -3.1858,35.555 16.205,5.8584 32.101,-5.417 40.994,-12.67 6.6108,-37.57 -0.36008,-43.043 -20.731,-51.748 z"
       transform="matrix(-0.29635995,0,0,0.25429546,191.44027,-12.027567)" />
    <path
       inkscape:connector-curvature="0"
       style="display:inline;fill:#ffcc00;fill-rule:evenodd;stroke:none"
       id="path4"
       d="m 430.46,242.9 c -7.8054,2.0162 -26.509,49.301 -27.649,66 -0.55454,12.787 -5.9989,31.094 -1.1223,42.972 5.1888,10.956 16.454,29.31 32.092,26.992 17.992,-5.2735 21.142,-25.04 22.099,-36.909 0.73075,-12.97 -6.6216,-25.086 -11.477,-37.154 -5.5531,-6.8612 -17.248,-28.573 -14.552,-49.965 0.42124,-3.3426 9.0949,-9.12 0.61011,-11.935 z"
       transform="matrix(0.29802378,0,0,0.29802378,129.20691,-51.286802)" />
    <path
       inkscape:connector-curvature="0"
       style="display:inline;fill:#ffcc00;fill-rule:evenodd;stroke:none"
       id="path6"
       d="m 374.8,253 c -19.492,2.2608 -19.858,34.439 -20.923,48.523 -0.68946,12.09 2.1639,23.749 6.241,34.876 3.6035,9.7002 1.7908,21.136 9.0633,28.988 4.4438,4.7294 9.8233,9.0586 16.73,11.147 3.9058,1.1146 8.4958,1.1748 12.536,-0.57588 5.0193,-2.1436 8.4236,-6.3762 10.554,-10.631 3.2255,-6.4069 4.3173,-13.253 4.6216,-19.921 0.40232,-10.905 -11.219,-18.039 -14.714,-28.159 -6.3829,-12.344 -16.014,-37.285 -24.171,-54.522 -1.1485,-2.4268 2.4921,-9.6877 0.0632,-9.726 z"
       transform="matrix(0.29802378,0,0,0.29802378,129.20691,-51.286802)" />
    <path
       inkscape:connector-curvature="0"
       style="display:inline;fill:#ffcc00;fill-rule:evenodd;stroke:none"
       id="path8"
       d="m 520.85,248.32 c -26.732,-7.6252 -59.537,27.34 -65.297,43.056 -4.1059,12.123 -14.449,28.179 -13.086,40.946 1.9205,11.969 7.6083,32.74 23.27,34.885 18.749,-0.0357 27.297,-18.135 31.532,-29.263 4.3261,-12.249 0.6523,-25.937 -0.63693,-38.881 -3.2705,-8.1645 0.56573,-35.156 11.266,-44.633 4.9501,-4.3845 15.299,-5.6058 12.952,-6.109 z"
       transform="matrix(0.29802378,0,0,0.29802378,129.20691,-51.286802)" />
    <path
       inkscape:connector-curvature="0"
       style="display:inline;fill:#ffcc00;fill-rule:evenodd;stroke:none"
       id="path10"
       d="m 577.9,271.54 c -7.1587,-3.7072 -55.815,19.241 -67.808,30.918 -8.9464,9.1535 -25.218,19.154 -29.512,31.255 -3.4466,11.622 -7.3047,32.809 5.8882,41.518 16.919,8.0789 32.456,-4.5405 41.089,-12.742 9.1995,-9.1719 11.809,-23.102 16.246,-35.33 0.47761,-7.1836 14.083,-27.089 20.532,-41.988 3.3403,-7.7173 16.883,-11.063 13.565,-13.631 z"
       transform="matrix(0.29802378,0,0,0.29802378,129.20691,-51.286802)" />
    <path
       inkscape:connector-curvature="0"
       style="display:inline;fill:#ffcc00;fill-rule:evenodd;stroke:none"
       id="path12"
       d="m 324.04,260.82 c -17.398,4.2362 -15.089,37.84 -16.154,51.924 -0.68946,12.09 2.1638,23.749 6.241,34.876 3.6035,9.7002 1.7908,21.136 9.0633,28.988 4.4438,4.7294 9.8233,9.0586 16.73,11.147 3.9058,1.1146 8.4958,1.1748 12.536,-0.57588 5.0193,-2.1436 8.4236,-6.3762 10.554,-10.631 3.2255,-6.4069 4.3172,-13.253 4.6216,-19.921 0.40233,-10.905 -11.219,-18.039 -14.714,-28.159 -6.2552,-12.097 -26.591,-36.024 -31.567,-56.649 -0.75499,-3.1288 5.2723,-10.404 2.6904,-11 z"
       transform="matrix(0.29802378,0,0,0.29802378,129.20691,-51.286802)" />
    <path
       inkscape:connector-curvature="0"
       style="display:inline;fill:#ffcc00;fill-rule:evenodd;stroke:none"
       id="path14"
       d="m 270.22,284.45 c -2.2634,15.044 -0.008,31.368 1.116,45.448 1.187,12.051 5.8076,23.129 11.555,33.493 5.0591,9.0269 5.0353,20.605 13.434,27.24 5.1212,3.9859 11.105,7.4318 18.252,8.4278 4.0311,0.49764 8.5753,-0.15212 12.296,-2.506 4.6278,-2.8935 7.3372,-7.6012 8.7843,-12.135 2.1968,-6.8284 2.2175,-13.761 1.4878,-20.396 -1.2876,-10.836 -13.872,-16.089 -18.889,-25.547 -9.4634,-12.915 -29.819,-56.58 -48.036,-54.025 z"
       transform="matrix(0.29802378,0,0,0.29802378,129.20691,-51.286802)" />
    <path
       inkscape:connector-curvature="0"
       style="display:inline;fill:#ffcc00;fill-rule:evenodd;stroke:none"
       id="path16-9"
       d="m 198.61,323.76 c 5.4286,-4.7124 52.139,7.7298 64.879,16.357 9.5942,6.8453 25.689,13.155 31.865,23.56 5.3462,10.115 12.997,28.992 3.3754,39.41 -12.969,10.507 -28.963,1.646 -38.093,-4.376 -9.8166,-6.8168 -14.91,-19.214 -21.236,-29.711 -1.8767,-6.5496 -17.687,-22.488 -26.295,-35.09 -4.4585,-6.5274 -16.84,-7.1812 -14.496,-10.15 z"
       transform="matrix(0.29802378,0,0,0.29802378,129.20691,-51.286802)" />
    <path
       inkscape:connector-curvature="0"
       style="display:inline;fill:#ffcc00;fill-rule:evenodd;stroke:none"
       id="path18"
       d="m 142.79,377.43 c 3.8773,-7.068 57.066,-15.134 73.531,-12.124 12.53,2.6134 31.614,1.8477 41.924,9.5006 9.3394,7.7283 24.352,23.169 18.252,37.753 -9.5441,16.138 -29.478,14.32 -41.216,12.323 -12.75,-2.4876 -22.681,-12.599 -33.18,-20.278 -4.4005,-5.6981 -26.791,-14.641 -40.45,-23.418 -7.0747,-4.5456 -20.184,0.22467 -18.86,-3.757 z"
       transform="matrix(0.29802378,0,0,0.29802378,129.20691,-51.286802)" />
    <path
       inkscape:connector-curvature="0"
       style="display:inline;fill:#ffcc00;fill-rule:evenodd;stroke:none"
       id="path20"
       d="m 128.24,415.47 c 3.8773,-7.068 57.066,-15.134 73.531,-12.124 12.53,2.6134 31.614,1.8477 41.924,9.5006 9.3394,7.7283 24.352,23.169 18.252,37.753 -9.5441,16.138 -29.478,14.32 -41.216,12.323 -12.75,-2.4876 -22.681,-12.599 -33.18,-20.278 -4.4005,-5.6981 -26.791,-14.641 -40.45,-23.418 -7.0747,-4.5456 -20.184,0.22466 -18.86,-3.757 z"
       transform="matrix(0.29802378,0,0,0.29802378,129.20691,-51.286802)" />
    <path
       inkscape:connector-curvature="0"
       style="display:inline;fill:#aa8800;fill-rule:evenodd;stroke:none"
       id="path22"
       d="m 471.43,445.22 a 142.86,47.143 0 1 1 -285.71,0 142.86,47.143 0 1 1 285.71,0 z"
       transform="matrix(0.28509849,-0.08682029,0.08682029,0.28509849,109.01103,-30.637927)" />
    <path
       inkscape:connector-curvature="0"
       style="display:inline;fill:#ffcc00;fill-rule:evenodd;stroke:none"
       id="path24"
       d="m 573.33,305.78 c -7.1587,-3.7072 -55.815,19.241 -67.808,30.918 -8.9464,9.1535 -25.218,19.154 -29.512,31.255 -3.4466,11.622 -7.3047,32.809 5.8882,41.518 16.919,8.0789 32.456,-4.5405 41.089,-12.742 9.1995,-9.1719 11.809,-23.102 16.246,-35.33 0.47762,-7.1836 14.083,-27.089 20.532,-41.988 3.3403,-7.7173 16.883,-11.063 13.565,-13.631 z"
       transform="matrix(0.29802378,0,0,0.29802378,129.20691,-51.286802)" />
    <path
       inkscape:connector-curvature="0"
       style="display:inline;fill:#ffcc00;fill-rule:evenodd;stroke:none"
       id="path26"
       d="m 528.28,345.56 c -5.8571,-3.0188 -45.709,15.75 -55.537,25.289 -7.3319,7.4773 -20.661,15.652 -24.187,25.53 -2.8318,9.4868 -6.0088,26.779 4.7837,33.874 13.843,6.5776 26.574,-3.7337 33.648,-10.434 7.5391,-7.4925 9.6874,-18.862 13.331,-28.844 0.39732,-5.8623 11.553,-22.117 16.845,-34.281 2.7413,-6.3004 13.831,-9.0426 11.116,-11.135 z"
       transform="matrix(0.29802378,0,0,0.29802378,129.20691,-51.286802)" />
    <path
       inkscape:connector-curvature="0"
       style="display:inline;fill:#ffcc00;fill-rule:evenodd;stroke:none"
       id="path28"
       d="m 201.48,426.76 c 3.1803,-5.771 28.131,-9.723 41.607,-7.2813 10.255,2.1215 25.878,1.4799 34.312,7.7157 7.6387,6.2982 19.915,18.885 14.909,30.791 -7.8274,13.177 -24.144,11.711 -33.752,10.092 -10.436,-2.0187 -18.556,-10.261 -27.145,-16.518 -3.5974,-4.6458 -16.245,-12.905 -27.419,-20.055 -5.7876,-3.703 -3.5995,-1.4946 -2.5122,-4.7448 z"
       transform="matrix(0.29802378,0,0,0.29802378,129.20691,-51.286802)" />
    <path
       inkscape:connector-curvature="0"
       style="display:inline;fill:#502d16;fill-rule:evenodd;stroke:none"
       id="path30"
       d="m 471.43,445.22 a 142.86,47.143 0 1 1 -285.71,0 142.86,47.143 0 1 1 285.71,0 z"
       transform="matrix(0.20324029,-0.05624007,0.03710396,0.13262654,158.24217,23.043307)" />
    <path
       inkscape:connector-curvature="0"
       style="display:inline;fill:#ffcc00;fill-rule:evenodd;stroke:none"
       id="path32"
       d="m 264.04,430.41 c 3.1803,-5.771 13.602,-15.752 27.078,-13.31 10.255,2.1215 25.878,1.4799 34.312,7.7157 7.6387,6.2982 19.915,18.885 14.909,30.791 -7.8274,13.177 -24.144,11.711 -33.752,10.092 -10.436,-2.0187 -18.556,-10.261 -27.145,-16.518 -7.3101,-9.4269 -17.662,-12.589 -15.402,-18.771 z"
       transform="matrix(0.29802378,0,0,0.29802378,129.20691,-51.286802)" />
    <path
       inkscape:connector-curvature="0"
       style="display:inline;fill:#ffcc00;fill-rule:evenodd;stroke:none"
       id="path34"
       d="m 308.74,433.92 c 2.412,-5.537 13.309,-18.649 24.804,-15.604 8.7598,2.5769 22.166,-2.6164 29.583,3.9291 6.7485,6.5693 17.711,19.556 14.048,31.053 -5.9849,12.616 -19.832,10.398 -28.022,8.3467 -8.9073,-2.4841 -16.155,-10.992 -23.704,-17.566 -6.6193,-9.6372 -18.326,-4.1738 -16.71,-10.159 z"
       transform="matrix(0.29802378,0,0,0.29802378,129.20691,-51.286802)" />
    <path
       inkscape:connector-curvature="0"
       style="display:inline;fill:#ffcc00;fill-rule:evenodd;stroke:none"
       id="path36"
       d="m 470.94,370.21 c -5.8571,-3.0188 -28.776,7.6068 -38.603,17.145 -7.3319,7.4773 -20.661,15.653 -24.187,25.53 -2.8318,9.4868 -6.0088,26.779 4.7837,33.874 13.843,6.5776 26.574,-3.7337 33.648,-10.434 7.5391,-7.4925 9.6874,-18.862 13.331,-28.844 0.39732,-5.8623 6.2945,-19.769 11.587,-31.933 2.7413,-6.3004 2.1555,-3.2471 -0.5588,-5.3397 z"
       transform="matrix(0.29802378,0,0,0.29802378,129.20691,-51.286802)" />
    <path
       inkscape:connector-curvature="0"
       style="display:inline;fill:#ffcc00;fill-rule:evenodd;stroke:none"
       id="path38"
       d="m 393.12,390.34 c -18.517,13.523 -12.246,18.589 -17.076,28.863 -3.9729,9.8343 -15.7,28.984 -3.1858,35.555 16.205,5.8584 32.101,-5.417 40.994,-12.67 6.6108,-37.57 -0.36008,-43.043 -20.731,-51.748 z"
       transform="matrix(0.29802378,0,0,0.29802378,129.20691,-51.286802)" />
    <path
       inkscape:connector-curvature="0"
       style="display:inline;fill:#ffcc00;fill-rule:evenodd;stroke:none;stroke-width:0.246243"
       id="path1870"
       d="m 178.89944,110.92762 c -1.71631,0.55598 -5.82901,13.59506 -6.07968,18.1999 -0.12194,3.5261 -1.31909,8.57437 -0.24679,11.84981 1.14096,3.02118 3.61804,8.08242 7.05665,7.44322 3.95623,-1.4542 4.64889,-6.90495 4.85932,-10.1779 0.16068,-3.57655 -1.45602,-6.91761 -2.52366,-10.24544 -1.22107,-1.89202 -3.79263,-7.87918 -3.19981,-13.77816 0.0926,-0.92175 1.99985,-2.51489 0.13415,-3.29115 z" />
    <path
       inkscape:connector-curvature="0"
       style="display:inline;fill:#ffcc00;fill-rule:evenodd;stroke:none;stroke-width:0.246243"
       id="path1872"
       d="m 166.66046,113.71276 c -4.28605,0.62343 -4.36654,9.49676 -4.60071,13.38052 -0.15161,3.3339 0.47582,6.54894 1.37232,9.61728 0.79237,2.67488 0.39378,5.82838 1.99291,7.99361 0.97713,1.30418 2.16003,2.49797 3.67872,3.07385 0.85885,0.30737 1.86814,0.32398 2.75653,-0.15879 1.10368,-0.59111 1.85225,-1.75827 2.3207,-2.93157 0.70925,-1.76675 0.94932,-3.65459 1.01625,-5.49333 0.0884,-3.00712 -2.46694,-4.97438 -3.23545,-7.76503 -1.40352,-3.40393 -3.52129,-10.28156 -5.31491,-15.03477 -0.25255,-0.66921 0.54799,-2.67146 0.0139,-2.68201 z" />
    <path
       inkscape:connector-curvature="0"
       style="display:inline;fill:#ffcc00;fill-rule:evenodd;stroke:none;stroke-width:0.246243"
       id="path1874"
       d="m 198.77513,112.42222 c -5.87805,-2.10269 -13.09148,7.53916 -14.35804,11.87295 -0.90283,3.343 -3.17715,7.77055 -2.87746,11.29113 0.4223,3.30052 1.67298,9.02825 5.11681,9.61976 4.12269,-0.0101 6.00229,-5.00084 6.9335,-8.06946 0.95127,-3.37775 0.14345,-7.15228 -0.14005,-10.72168 -0.71913,-2.25141 0.12439,-9.69448 2.47726,-12.30782 1.08848,-1.20907 3.36408,-1.54584 2.84801,-1.6846 z" />
    <path
       inkscape:connector-curvature="0"
       style="display:inline;fill:#ffcc00;fill-rule:evenodd;stroke:none;stroke-width:0.246243"
       id="path1876"
       d="m 211.31976,118.82527 c -1.5741,-1.02227 -12.27305,5.30584 -14.91019,8.52584 -1.96719,2.52413 -5.54513,5.28183 -6.48934,8.61876 -0.75784,3.20485 -1.60622,9.04729 1.29475,11.44885 3.72029,2.22781 7.1367,-1.25207 9.03499,-3.51368 2.02286,-2.52921 2.59666,-6.37053 3.5723,-9.74248 0.10502,-1.98091 3.09668,-7.46995 4.51475,-11.57844 0.73447,-2.1281 3.71236,-3.0507 2.98279,-3.75885 z" />
    <path
       inkscape:connector-curvature="0"
       style="display:inline;fill:#ffcc00;fill-rule:evenodd;stroke:none;stroke-width:0.246243"
       id="path1878"
       d="m 155.49895,115.86918 c -3.82563,1.16816 -3.31789,10.43461 -3.55207,14.31837 -0.15161,3.33387 0.47579,6.54891 1.37233,9.61726 0.79235,2.6749 0.39376,5.82838 1.9929,7.99362 0.97714,1.30416 2.16004,2.49796 3.67873,3.07386 0.85884,0.30737 1.86813,0.32396 2.75652,-0.1588 1.10369,-0.59112 1.85225,-1.75828 2.3207,-2.93157 0.70925,-1.76674 0.94929,-3.65459 1.01623,-5.49334 0.0884,-3.00711 -2.46693,-4.97436 -3.23545,-7.765 -1.37544,-3.33583 -5.84703,-9.93386 -6.94119,-15.62133 -0.16602,-0.86278 1.15931,-2.86897 0.59159,-3.03331 z" />
    <path
       inkscape:connector-curvature="0"
       style="display:inline;fill:#ffcc00;fill-rule:evenodd;stroke:none;stroke-width:0.246243"
       id="path1880"
       d="m 143.66456,122.38529 c -0.4977,4.14848 -0.002,8.64992 0.24541,12.53258 0.261,3.32313 1.27702,6.37797 2.5408,9.23589 1.11243,2.48923 1.1072,5.68198 2.95398,7.51161 1.12609,1.09912 2.44185,2.04937 4.0134,2.32402 0.88639,0.13722 1.88559,-0.0419 2.70372,-0.69105 1.01761,-0.79792 1.61338,-2.09608 1.93158,-3.3463 0.48305,-1.88296 0.48761,-3.79469 0.32715,-5.62433 -0.28313,-2.98809 -3.05027,-4.43663 -4.15347,-7.04474 -2.08089,-3.5614 -6.55685,-15.60229 -10.56254,-14.89773 z" />
    <path
       inkscape:connector-curvature="0"
       style="display:inline;fill:#ffcc00;fill-rule:evenodd;stroke:none;stroke-width:0.246243"
       id="path1882"
       d="m 127.91837,133.22527 c 1.19368,-1.29947 11.46475,2.13154 14.26613,4.51055 2.10964,1.88763 5.64871,3.62757 7.00674,6.49681 1.17555,2.78928 2.85787,7.99473 0.74221,10.86756 -2.85173,2.89735 -6.36863,0.45389 -8.37621,-1.20672 -2.15856,-1.87977 -3.27853,-5.29837 -4.66955,-8.193 -0.41266,-1.80608 -3.88915,-6.20119 -5.78195,-9.67627 -0.98037,-1.79998 -3.70293,-1.98026 -3.18751,-2.79893 z" />
    <path
       inkscape:connector-curvature="0"
       style="display:inline;fill:#ffcc00;fill-rule:evenodd;stroke:none;stroke-width:0.246243"
       id="path1884"
       d="m 115.64421,148.02511 c 0.85258,-1.94905 12.54815,-4.1733 16.1686,-3.34328 2.75521,0.72067 6.95155,0.50952 9.21859,2.61986 2.05364,2.13112 5.35472,6.389 4.01341,10.41062 -2.09865,4.45015 -6.48188,3.94884 -9.06292,3.39815 -2.80357,-0.68598 -4.98728,-3.47426 -7.29588,-5.59178 -0.96762,-1.57129 -5.89104,-4.03736 -8.89448,-6.45767 -1.55565,-1.25349 -4.43823,0.0619 -4.14709,-1.03601 z" />
    <path
       inkscape:connector-curvature="0"
       style="display:inline;fill:#ffcc00;fill-rule:evenodd;stroke:none;stroke-width:0.246243"
       id="path1886"
       d="m 112.44485,158.51488 c 0.85256,-1.94905 12.54813,-4.17331 16.16859,-3.34327 2.7552,0.72066 6.95154,0.50952 9.21859,2.61983 2.05361,2.13115 5.35473,6.389 4.0134,10.41064 -2.09864,4.45015 -6.48186,3.94882 -9.06291,3.39815 -2.80358,-0.68598 -4.98729,-3.47427 -7.29589,-5.5918 -0.96762,-1.57129 -5.89102,-4.03734 -8.89448,-6.45765 -1.55564,-1.25347 -4.43822,0.0621 -4.1471,-1.03601 z" />
    <path
       inkscape:connector-curvature="0"
       style="display:inline;fill:#aa8800;fill-rule:evenodd;stroke:none;stroke-width:0.246243"
       id="path1888"
       d="m 197.03133,142.62851 a 12.676258,32.215693 67.757861 1 1 -60.09957,22.95202 12.676258,32.215693 67.757861 1 1 60.09957,-22.95202 z" />
    <path
       inkscape:connector-curvature="0"
       style="display:inline;fill:#ffcc00;fill-rule:evenodd;stroke:none;stroke-width:0.246243"
       id="path1890"
       d="m 210.31486,128.26718 c -1.57411,-1.02228 -12.27305,5.30582 -14.91017,8.52584 -1.96721,2.52412 -5.54514,5.28183 -6.48934,8.61875 -0.75787,3.20483 -1.60623,9.04728 1.29474,11.44883 3.72028,2.22782 7.13669,-1.25205 9.03499,-3.51368 2.02286,-2.52922 2.59665,-6.37051 3.5723,-9.74247 0.10503,-1.98091 3.09669,-7.46995 4.51475,-11.57844 0.7345,-2.1281 3.71237,-3.0507 2.98278,-3.75883 z" />
    <path
       inkscape:connector-curvature="0"
       style="display:inline;fill:#ffcc00;fill-rule:evenodd;stroke:none;stroke-width:0.246243"
       id="path1892"
       d="m 200.4089,139.23676 c -1.28791,-0.83246 -10.05087,4.34315 -12.21193,6.97359 -1.6122,2.06191 -4.54311,4.31614 -5.31843,7.04006 -0.62269,2.61605 -1.32126,7.38447 1.05189,9.34097 3.04389,1.8138 5.84328,-1.0296 7.39878,-2.87724 1.65777,-2.06612 2.13016,-5.20132 2.93135,-7.95393 0.0873,-1.61655 2.54036,-6.0989 3.704,-9.45319 0.60278,-1.73736 3.04128,-2.49355 2.44428,-3.07054 z" />
    <path
       inkscape:connector-curvature="0"
       style="display:inline;fill:#ffcc00;fill-rule:evenodd;stroke:none;stroke-width:0.246243"
       id="path1894"
       d="m 128.54945,161.62817 c 0.69931,-1.5914 6.18567,-2.68119 9.14887,-2.00788 2.25497,0.58502 5.69029,0.4081 7.54482,2.12765 1.67966,1.73678 4.37907,5.20766 3.27831,8.49083 -1.72115,3.63363 -5.30896,3.22936 -7.42167,2.78291 -2.29474,-0.55666 -4.08024,-2.82953 -5.96886,-4.55494 -0.79101,-1.2811 -3.57208,-3.55862 -6.02911,-5.53028 -1.27263,-1.02112 -0.79147,-0.41215 -0.55239,-1.3084 z" />
    <path
       inkscape:connector-curvature="0"
       style="display:inline;fill:#502d16;fill-rule:evenodd;stroke:none;stroke-width:0.140808"
       id="path1896"
       d="m 188.55083,142.82662 a 5.8858052,22.68666 70.385874 1 1 -42.84362,14.86777 5.8858052,22.68666 70.385874 1 1 42.84362,-14.86777 z" />
    <path
       inkscape:connector-curvature="0"
       style="display:inline;fill:#ffcc00;fill-rule:evenodd;stroke:none;stroke-width:0.246243"
       id="path1898"
       d="m 142.30566,162.63466 c 0.69931,-1.59139 2.99091,-4.3437 5.95412,-3.6703 2.25496,0.58501 5.69027,0.40809 7.54481,2.12765 1.67966,1.73677 4.37907,5.20765 3.27832,8.49082 -1.72117,3.63362 -5.30899,3.22936 -7.42167,2.78292 -2.29476,-0.55667 -4.08025,-2.82954 -5.96886,-4.55494 -1.60742,-2.59953 -3.88368,-3.4715 -3.38672,-5.17622 z" />
    <path
       inkscape:connector-curvature="0"
       style="display:inline;fill:#ffcc00;fill-rule:evenodd;stroke:none;stroke-width:0.246243"
       id="path1900"
       d="m 152.13466,163.60257 c 0.53037,-1.52685 2.92649,-5.14257 5.45412,-4.3029 1.92617,0.71061 4.87402,-0.72148 6.50493,1.08348 1.48392,1.81153 3.89445,5.39269 3.089,8.56305 -1.31602,3.47894 -4.36083,2.86732 -6.16172,2.30166 -1.9586,-0.68502 -3.55229,-3.03111 -5.21222,-4.84394 -1.45551,-2.65751 -4.02968,-1.15094 -3.67434,-2.8014 z" />
    <path
       inkscape:connector-curvature="0"
       style="display:inline;fill:#ffcc00;fill-rule:evenodd;stroke:none;stroke-width:0.246243"
       id="path1902"
       d="m 187.80053,146.03415 c -1.28792,-0.83245 -6.32752,2.09763 -8.48836,4.72783 -1.6122,2.06191 -4.5431,4.31641 -5.31843,7.04006 -0.62268,2.61604 -1.32125,7.38446 1.05188,9.34096 3.04391,1.81382 5.84331,-1.02958 7.39879,-2.87723 1.65776,-2.06611 2.13015,-5.20132 2.93133,-7.95392 0.0873,-1.61656 1.38408,-5.45142 2.54785,-8.80571 0.60277,-1.73739 0.47396,-0.89542 -0.12288,-1.47248 z" />
    <path
       inkscape:connector-curvature="0"
       style="display:inline;fill:#ffcc00;fill-rule:evenodd;stroke:none;stroke-width:0.246243"
       id="path1904"
       d="m 170.68882,151.58511 c -4.07167,3.72905 -2.69275,5.12602 -3.75481,7.95916 -0.8736,2.71188 -3.45224,7.99252 -0.70053,9.80452 3.56329,1.61547 7.05865,-1.49378 9.0141,-3.49384 1.45365,-10.36017 -0.0791,-11.86937 -4.55849,-14.26984 z" />
  </g>
</svg>
