<?xml version="1.0" encoding="UTF-8" standalone="no"?>
<svg
   xmlns:dc="http://purl.org/dc/elements/1.1/"
   xmlns:cc="http://creativecommons.org/ns#"
   xmlns:rdf="http://www.w3.org/1999/02/22-rdf-syntax-ns#"
   xmlns:svg="http://www.w3.org/2000/svg"
   xmlns="http://www.w3.org/2000/svg"
   xmlns:sodipodi="http://sodipodi.sourceforge.net/DTD/sodipodi-0.dtd"
   xmlns:inkscape="http://www.inkscape.org/namespaces/inkscape"
   width="350mm"
   height="210mm"
   viewBox="0 0 350 210"
   version="1.1"
   id="svg1434"
   inkscape:version="1.0.1 (3bc2e813f5, 2020-09-07)"
   sodipodi:docname="base-sunflowers.svg">
  <defs
     id="defs1428">
    <clipPath
       clipPathUnits="userSpaceOnUse"
       id="clipPath18">
      <path
         d="M 0,600.949 H 847.559 V 0 H 0 Z"
         id="path16"
         inkscape:connector-curvature="0" />
    </clipPath>
    <linearGradient
       id="a"
       x1="104.73"
       x2="494.51999"
       y1="335.72"
       y2="895.84003"
       gradientUnits="userSpaceOnUse">
      <stop
         stop-color="#e00"
         offset="0"
         id="stop2" />
      <stop
         stop-color="#9a0000"
         offset="1"
         id="stop4" />
    </linearGradient>
  </defs>
  <sodipodi:namedview
     id="base"
     pagecolor="#ffffff"
     bordercolor="#666666"
     borderopacity="1.0"
     inkscape:pageopacity="0.0"
     inkscape:pageshadow="2"
     inkscape:zoom="0.35"
     inkscape:cx="400"
     inkscape:cy="560"
     inkscape:document-units="mm"
     inkscape:current-layer="layer1"
     inkscape:document-rotation="0"
     showgrid="false"
     inkscape:snap-page="false"
     width="298mm"
     showguides="false"
     inkscape:window-width="1300"
     inkscape:window-height="1041"
     inkscape:window-x="372"
     inkscape:window-y="16"
     inkscape:window-maximized="0" />
  <metadata
     id="metadata1431">
    <rdf:RDF>
      <cc:Work
         rdf:about="">
        <dc:format>image/svg+xml</dc:format>
        <dc:type
           rdf:resource="http://purl.org/dc/dcmitype/StillImage" />
        <dc:title></dc:title>
      </cc:Work>
    </rdf:RDF>
  </metadata>
  <g
     inkscape:label="Layer 1"
     inkscape:groupmode="layer"
     id="layer1"
     style="display:inline">
    <g
       transform="matrix(0.29802377,0,0,0.29802377,129.20691,-51.286802)"
       id="g994">
      <path
         style="fill:#2d5016;fill-rule:evenodd"
         inkscape:connector-curvature="0"
         id="path2"
         d="m 421.27,420.97 c -16.312,0.0837 -30.527,2.0874 -46.857,2.1651 2.9891,8.565 16.061,53.57 9.0821,76.448 -2.5836,8.469 -0.74436,-53.45 -32.878,-33.24 -5.591,3.5163 -30.487,-1.7993 -15.86,13.652 14.39,15.2 46.157,53.039 51.494,73.843 8.255,32.178 12.99,69.196 15.023,108.07 0.13848,2.6484 -32.718,-19.473 -65.708,-34.121 -26.393,-11.719 -53.421,-13.47 -72.538,-15.303 -15.629,-1.4992 -38.259,14.043 -34.274,14.582 46.594,6.3064 74.93,14.171 112.96,26.977 43.994,14.816 60.667,41.42 60.703,44.776 0.65041,61.242 -4.5132,124.66 -12.501,179.32 14.104,-2.3715 24.394,11.847 26.903,-1.1642 1.5635,-59.65 -0.87656,-173.04 6.148,-266.71 0.42465,-5.6621 12.949,-26.751 44.137,-25.069 98.79,5.3289 103,-6.6835 114.81,-29.442 4.7456,-9.1406 -20.938,-13.974 -27.366,-13.569 -45.639,2.8784 -136.39,49.737 -137.48,41.493 -11.088,-83.848 -19.83,-127.35 4.2007,-162.71 z" />
      <path
         inkscape:connector-curvature="0"
         id="path40"
         d="m 571.06836,557.97461 c -34.68955,2.15791 -64.48595,3.25009 -98.24609,16.79297 l 0.0742,0.18554 c 33.72586,-13.52912 63.49115,-14.6212 98.1836,-16.77929 z"
         style="color:#000000;font-style:normal;font-variant:normal;font-weight:normal;font-stretch:normal;font-size:medium;line-height:normal;font-family:sans-serif;font-variant-ligatures:normal;font-variant-position:normal;font-variant-caps:normal;font-variant-numeric:normal;font-variant-alternates:normal;font-feature-settings:normal;text-indent:0;text-align:start;text-decoration:none;text-decoration-line:none;text-decoration-style:solid;text-decoration-color:#000000;letter-spacing:normal;word-spacing:normal;text-transform:none;writing-mode:lr-tb;direction:ltr;text-orientation:mixed;dominant-baseline:auto;baseline-shift:baseline;text-anchor:start;white-space:normal;shape-padding:0;clip-rule:nonzero;display:inline;overflow:visible;visibility:visible;opacity:1;isolation:auto;mix-blend-mode:normal;color-interpolation:sRGB;color-interpolation-filters:linearRGB;solid-color:#000000;solid-opacity:1;vector-effect:none;fill:#17280b;fill-opacity:1;fill-rule:nonzero;stroke:none;stroke-width:0.2;stroke-linecap:butt;stroke-linejoin:miter;stroke-miterlimit:4;stroke-dasharray:none;stroke-dashoffset:0;stroke-opacity:1;color-rendering:auto;image-rendering:auto;shape-rendering:auto;text-rendering:auto;enable-background:accumulate" />
      <path
         inkscape:connector-curvature="0"
         id="path42"
         d="m 250.36719,622.26367 -0.0137,0.19922 c 24.84119,1.84427 40.54185,1.62338 55.875,4.84961 15.33315,3.22623 30.30976,9.89867 53.71679,25.54102 l 0.10938,-0.16602 c -23.41797,-15.64965 -38.42331,-22.33804 -53.78516,-25.57031 -15.36185,-3.23227 -31.06854,-3.00979 -55.90234,-4.85352 z"
         style="color:#000000;font-style:normal;font-variant:normal;font-weight:normal;font-stretch:normal;font-size:medium;line-height:normal;font-family:sans-serif;font-variant-ligatures:normal;font-variant-position:normal;font-variant-caps:normal;font-variant-numeric:normal;font-variant-alternates:normal;font-feature-settings:normal;text-indent:0;text-align:start;text-decoration:none;text-decoration-line:none;text-decoration-style:solid;text-decoration-color:#000000;letter-spacing:normal;word-spacing:normal;text-transform:none;writing-mode:lr-tb;direction:ltr;text-orientation:mixed;dominant-baseline:auto;baseline-shift:baseline;text-anchor:start;white-space:normal;shape-padding:0;clip-rule:nonzero;display:inline;overflow:visible;visibility:visible;opacity:1;isolation:auto;mix-blend-mode:normal;color-interpolation:sRGB;color-interpolation-filters:linearRGB;solid-color:#000000;solid-opacity:1;vector-effect:none;fill:#17280b;fill-opacity:1;fill-rule:nonzero;stroke:none;stroke-width:0.2;stroke-linecap:butt;stroke-linejoin:miter;stroke-miterlimit:4;stroke-dasharray:none;stroke-dashoffset:0;stroke-opacity:1;color-rendering:auto;image-rendering:auto;shape-rendering:auto;text-rendering:auto;enable-background:accumulate" />
      <path
         inkscape:connector-curvature="0"
         id="path44"
         d="m 348.82812,467.96875 -0.11523,0.16406 c 9.49925,6.64531 13.26819,14.67468 15.85742,23.6211 l 0.19336,-0.0547 c -2.59477,-8.96558 -6.39459,-17.05598 -15.93555,-23.73047 z"
         style="color:#000000;font-style:normal;font-variant:normal;font-weight:normal;font-stretch:normal;font-size:medium;line-height:normal;font-family:sans-serif;font-variant-ligatures:normal;font-variant-position:normal;font-variant-caps:normal;font-variant-numeric:normal;font-variant-alternates:normal;font-feature-settings:normal;text-indent:0;text-align:start;text-decoration:none;text-decoration-line:none;text-decoration-style:solid;text-decoration-color:#000000;letter-spacing:normal;word-spacing:normal;text-transform:none;writing-mode:lr-tb;direction:ltr;text-orientation:mixed;dominant-baseline:auto;baseline-shift:baseline;text-anchor:start;white-space:normal;shape-padding:0;clip-rule:nonzero;display:inline;overflow:visible;visibility:visible;opacity:1;isolation:auto;mix-blend-mode:normal;color-interpolation:sRGB;color-interpolation-filters:linearRGB;solid-color:#000000;solid-opacity:1;vector-effect:none;fill:#17280b;fill-opacity:1;fill-rule:nonzero;stroke:none;stroke-width:0.2;stroke-linecap:butt;stroke-linejoin:miter;stroke-miterlimit:4;stroke-dasharray:none;stroke-dashoffset:0;stroke-opacity:1;color-rendering:auto;image-rendering:auto;shape-rendering:auto;text-rendering:auto;enable-background:accumulate" />
    </g>
    <g
       transform="matrix(-0.29635995,0,0,0.25429546,191.44027,-12.027567)"
       id="g1755">
      <path
         style="fill:#2d5016;fill-rule:evenodd"
         inkscape:connector-curvature="0"
         id="path1711"
         d="m 421.27,420.97 c -16.312,0.0837 -30.527,2.0874 -46.857,2.1651 2.9891,8.565 16.061,53.57 9.0821,76.448 -2.5836,8.469 -0.74436,-53.45 -32.878,-33.24 -5.591,3.5163 -30.487,-1.7993 -15.86,13.652 14.39,15.2 46.157,53.039 51.494,73.843 8.255,32.178 12.99,69.196 15.023,108.07 0.13848,2.6484 -32.718,-19.473 -65.708,-34.121 -26.393,-11.719 -53.421,-13.47 -72.538,-15.303 -15.629,-1.4992 -38.259,14.043 -34.274,14.582 46.594,6.3064 74.93,14.171 112.96,26.977 43.994,14.816 60.667,41.42 60.703,44.776 0.65041,61.242 -4.5132,124.66 -12.501,179.32 14.104,-2.3715 24.394,11.847 26.903,-1.1642 1.5635,-59.65 -0.87656,-173.04 6.148,-266.71 0.42465,-5.6621 12.949,-26.751 44.137,-25.069 98.79,5.3289 103,-6.6835 114.81,-29.442 4.7456,-9.1406 -20.938,-13.974 -27.366,-13.569 -45.639,2.8784 -136.39,49.737 -137.48,41.493 -11.088,-83.848 -19.83,-127.35 4.2007,-162.71 z" />
      <path
         inkscape:connector-curvature="0"
         id="path1749"
         d="m 571.06836,557.97461 c -34.68955,2.15791 -64.48595,3.25009 -98.24609,16.79297 l 0.0742,0.18554 c 33.72586,-13.52912 63.49115,-14.6212 98.1836,-16.77929 z"
         style="color:#000000;font-style:normal;font-variant:normal;font-weight:normal;font-stretch:normal;font-size:medium;line-height:normal;font-family:sans-serif;font-variant-ligatures:normal;font-variant-position:normal;font-variant-caps:normal;font-variant-numeric:normal;font-variant-alternates:normal;font-feature-settings:normal;text-indent:0;text-align:start;text-decoration:none;text-decoration-line:none;text-decoration-style:solid;text-decoration-color:#000000;letter-spacing:normal;word-spacing:normal;text-transform:none;writing-mode:lr-tb;direction:ltr;text-orientation:mixed;dominant-baseline:auto;baseline-shift:baseline;text-anchor:start;white-space:normal;shape-padding:0;clip-rule:nonzero;display:inline;overflow:visible;visibility:visible;opacity:1;isolation:auto;mix-blend-mode:normal;color-interpolation:sRGB;color-interpolation-filters:linearRGB;solid-color:#000000;solid-opacity:1;vector-effect:none;fill:#17280b;fill-opacity:1;fill-rule:nonzero;stroke:none;stroke-width:0.2;stroke-linecap:butt;stroke-linejoin:miter;stroke-miterlimit:4;stroke-dasharray:none;stroke-dashoffset:0;stroke-opacity:1;color-rendering:auto;image-rendering:auto;shape-rendering:auto;text-rendering:auto;enable-background:accumulate" />
      <path
         inkscape:connector-curvature="0"
         id="path1751"
         d="m 250.36719,622.26367 -0.0137,0.19922 c 24.84119,1.84427 40.54185,1.62338 55.875,4.84961 15.33315,3.22623 30.30976,9.89867 53.71679,25.54102 l 0.10938,-0.16602 c -23.41797,-15.64965 -38.42331,-22.33804 -53.78516,-25.57031 -15.36185,-3.23227 -31.06854,-3.00979 -55.90234,-4.85352 z"
         style="color:#000000;font-style:normal;font-variant:normal;font-weight:normal;font-stretch:normal;font-size:medium;line-height:normal;font-family:sans-serif;font-variant-ligatures:normal;font-variant-position:normal;font-variant-caps:normal;font-variant-numeric:normal;font-variant-alternates:normal;font-feature-settings:normal;text-indent:0;text-align:start;text-decoration:none;text-decoration-line:none;text-decoration-style:solid;text-decoration-color:#000000;letter-spacing:normal;word-spacing:normal;text-transform:none;writing-mode:lr-tb;direction:ltr;text-orientation:mixed;dominant-baseline:auto;baseline-shift:baseline;text-anchor:start;white-space:normal;shape-padding:0;clip-rule:nonzero;display:inline;overflow:visible;visibility:visible;opacity:1;isolation:auto;mix-blend-mode:normal;color-interpolation:sRGB;color-interpolation-filters:linearRGB;solid-color:#000000;solid-opacity:1;vector-effect:none;fill:#17280b;fill-opacity:1;fill-rule:nonzero;stroke:none;stroke-width:0.2;stroke-linecap:butt;stroke-linejoin:miter;stroke-miterlimit:4;stroke-dasharray:none;stroke-dashoffset:0;stroke-opacity:1;color-rendering:auto;image-rendering:auto;shape-rendering:auto;text-rendering:auto;enable-background:accumulate" />
      <path
         inkscape:connector-curvature="0"
         id="path1753"
         d="m 348.82812,467.96875 -0.11523,0.16406 c 9.49925,6.64531 13.26819,14.67468 15.85742,23.6211 l 0.19336,-0.0547 c -2.59477,-8.96558 -6.39459,-17.05598 -15.93555,-23.73047 z"
         style="color:#000000;font-style:normal;font-variant:normal;font-weight:normal;font-stretch:normal;font-size:medium;line-height:normal;font-family:sans-serif;font-variant-ligatures:normal;font-variant-position:normal;font-variant-caps:normal;font-variant-numeric:normal;font-variant-alternates:normal;font-feature-settings:normal;text-indent:0;text-align:start;text-decoration:none;text-decoration-line:none;text-decoration-style:solid;text-decoration-color:#000000;letter-spacing:normal;word-spacing:normal;text-transform:none;writing-mode:lr-tb;direction:ltr;text-orientation:mixed;dominant-baseline:auto;baseline-shift:baseline;text-anchor:start;white-space:normal;shape-padding:0;clip-rule:nonzero;display:inline;overflow:visible;visibility:visible;opacity:1;isolation:auto;mix-blend-mode:normal;color-interpolation:sRGB;color-interpolation-filters:linearRGB;solid-color:#000000;solid-opacity:1;vector-effect:none;fill:#17280b;fill-opacity:1;fill-rule:nonzero;stroke:none;stroke-width:0.2;stroke-linecap:butt;stroke-linejoin:miter;stroke-miterlimit:4;stroke-dasharray:none;stroke-dashoffset:0;stroke-opacity:1;color-rendering:auto;image-rendering:auto;shape-rendering:auto;text-rendering:auto;enable-background:accumulate" />
    </g>
    <g
       transform="matrix(-0.23455732,0,0,0.1086431,260.60361,113.72327)"
       id="g1914">
      <path
         style="fill:#2d5016;fill-rule:evenodd"
         inkscape:connector-curvature="0"
         id="path1906"
         d="m 421.27,420.97 c -16.312,0.0837 -30.527,2.0874 -46.857,2.1651 2.9891,8.565 16.061,53.57 9.0821,76.448 -2.5836,8.469 -0.74436,-53.45 -32.878,-33.24 -5.591,3.5163 -30.487,-1.7993 -15.86,13.652 14.39,15.2 46.157,53.039 51.494,73.843 8.255,32.178 12.99,69.196 15.023,108.07 0.13848,2.6484 -32.718,-19.473 -65.708,-34.121 -26.393,-11.719 -53.421,-13.47 -72.538,-15.303 -15.629,-1.4992 -38.259,14.043 -34.274,14.582 46.594,6.3064 74.93,14.171 112.96,26.977 43.994,14.816 60.667,41.42 60.703,44.776 0.65041,61.242 -4.5132,124.66 -12.501,179.32 14.104,-2.3715 24.394,11.847 26.903,-1.1642 1.5635,-59.65 -0.87656,-173.04 6.148,-266.71 0.42465,-5.6621 12.949,-26.751 44.137,-25.069 98.79,5.3289 103,-6.6835 114.81,-29.442 4.7456,-9.1406 -20.938,-13.974 -27.366,-13.569 -45.639,2.8784 -136.39,49.737 -137.48,41.493 -11.088,-83.848 -19.83,-127.35 4.2007,-162.71 z" />
      <path
         inkscape:connector-curvature="0"
         id="path1908"
         d="m 571.06836,557.97461 c -34.68955,2.15791 -64.48595,3.25009 -98.24609,16.79297 l 0.0742,0.18554 c 33.72586,-13.52912 63.49115,-14.6212 98.1836,-16.77929 z"
         style="color:#000000;font-style:normal;font-variant:normal;font-weight:normal;font-stretch:normal;font-size:medium;line-height:normal;font-family:sans-serif;font-variant-ligatures:normal;font-variant-position:normal;font-variant-caps:normal;font-variant-numeric:normal;font-variant-alternates:normal;font-feature-settings:normal;text-indent:0;text-align:start;text-decoration:none;text-decoration-line:none;text-decoration-style:solid;text-decoration-color:#000000;letter-spacing:normal;word-spacing:normal;text-transform:none;writing-mode:lr-tb;direction:ltr;text-orientation:mixed;dominant-baseline:auto;baseline-shift:baseline;text-anchor:start;white-space:normal;shape-padding:0;clip-rule:nonzero;display:inline;overflow:visible;visibility:visible;opacity:1;isolation:auto;mix-blend-mode:normal;color-interpolation:sRGB;color-interpolation-filters:linearRGB;solid-color:#000000;solid-opacity:1;vector-effect:none;fill:#17280b;fill-opacity:1;fill-rule:nonzero;stroke:none;stroke-width:0.2;stroke-linecap:butt;stroke-linejoin:miter;stroke-miterlimit:4;stroke-dasharray:none;stroke-dashoffset:0;stroke-opacity:1;color-rendering:auto;image-rendering:auto;shape-rendering:auto;text-rendering:auto;enable-background:accumulate" />
      <path
         inkscape:connector-curvature="0"
         id="path1910"
         d="m 250.36719,622.26367 -0.0137,0.19922 c 24.84119,1.84427 40.54185,1.62338 55.875,4.84961 15.33315,3.22623 30.30976,9.89867 53.71679,25.54102 l 0.10938,-0.16602 c -23.41797,-15.64965 -38.42331,-22.33804 -53.78516,-25.57031 -15.36185,-3.23227 -31.06854,-3.00979 -55.90234,-4.85352 z"
         style="color:#000000;font-style:normal;font-variant:normal;font-weight:normal;font-stretch:normal;font-size:medium;line-height:normal;font-family:sans-serif;font-variant-ligatures:normal;font-variant-position:normal;font-variant-caps:normal;font-variant-numeric:normal;font-variant-alternates:normal;font-feature-settings:normal;text-indent:0;text-align:start;text-decoration:none;text-decoration-line:none;text-decoration-style:solid;text-decoration-color:#000000;letter-spacing:normal;word-spacing:normal;text-transform:none;writing-mode:lr-tb;direction:ltr;text-orientation:mixed;dominant-baseline:auto;baseline-shift:baseline;text-anchor:start;white-space:normal;shape-padding:0;clip-rule:nonzero;display:inline;overflow:visible;visibility:visible;opacity:1;isolation:auto;mix-blend-mode:normal;color-interpolation:sRGB;color-interpolation-filters:linearRGB;solid-color:#000000;solid-opacity:1;vector-effect:none;fill:#17280b;fill-opacity:1;fill-rule:nonzero;stroke:none;stroke-width:0.2;stroke-linecap:butt;stroke-linejoin:miter;stroke-miterlimit:4;stroke-dasharray:none;stroke-dashoffset:0;stroke-opacity:1;color-rendering:auto;image-rendering:auto;shape-rendering:auto;text-rendering:auto;enable-background:accumulate" />
      <path
         inkscape:connector-curvature="0"
         id="path1912"
         d="m 348.82812,467.96875 -0.11523,0.16406 c 9.49925,6.64531 13.26819,14.67468 15.85742,23.6211 l 0.19336,-0.0547 c -2.59477,-8.96558 -6.39459,-17.05598 -15.93555,-23.73047 z"
         style="color:#000000;font-style:normal;font-variant:normal;font-weight:normal;font-stretch:normal;font-size:medium;line-height:normal;font-family:sans-serif;font-variant-ligatures:normal;font-variant-position:normal;font-variant-caps:normal;font-variant-numeric:normal;font-variant-alternates:normal;font-feature-settings:normal;text-indent:0;text-align:start;text-decoration:none;text-decoration-line:none;text-decoration-style:solid;text-decoration-color:#000000;letter-spacing:normal;word-spacing:normal;text-transform:none;writing-mode:lr-tb;direction:ltr;text-orientation:mixed;dominant-baseline:auto;baseline-shift:baseline;text-anchor:start;white-space:normal;shape-padding:0;clip-rule:nonzero;display:inline;overflow:visible;visibility:visible;opacity:1;isolation:auto;mix-blend-mode:normal;color-interpolation:sRGB;color-interpolation-filters:linearRGB;solid-color:#000000;solid-opacity:1;vector-effect:none;fill:#17280b;fill-opacity:1;fill-rule:nonzero;stroke:none;stroke-width:0.2;stroke-linecap:butt;stroke-linejoin:miter;stroke-miterlimit:4;stroke-dasharray:none;stroke-dashoffset:0;stroke-opacity:1;color-rendering:auto;image-rendering:auto;shape-rendering:auto;text-rendering:auto;enable-background:accumulate" />
    </g>
  </g>
</svg>
