<?xml version="1.0" encoding="utf-8"?>
<!-- Generator: Adobe Illustrator 25.2.1, SVG Export Plug-In . SVG Version: 6.00 Build 0)  -->
<svg version="1.1" id="Layer_1" xmlns="http://www.w3.org/2000/svg" xmlns:xlink="http://www.w3.org/1999/xlink" x="0px" y="0px"
	 viewBox="0 0 288 560" style="enable-background:new 0 0 288 560;" xml:space="preserve">
<g>
	<path d="M180.1,272.1h-77.8c-0.9,0-1.7,0.7-1.7,1.5V329c0,0.8,0.8,1.5,1.7,1.5h77.8c0.9,0,1.7-0.7,1.7-1.5v-55.3
		C181.8,272.9,181,272.1,180.1,272.1z M171.8,315.5c-0.4,0.6-0.9,1.1-1.4,1.5c-0.7,0.5-1.4,1.2-1.8,2l-1.2,2.1l-1.2-2.1
		c-0.5-0.8-1.1-1.5-1.8-2c-0.6-0.4-1-0.9-1.4-1.5c-0.9-1.4-0.9-3.6-0.4-5.2c-3.9,0-7.2-3.3-7.2-7.2V300c0-4,3.2-7.2,7.2-7.2
		c-0.5-1.6-0.5-3.8,0.4-5.2c0.4-0.6,0.9-1.1,1.4-1.5c0.7-0.5,1.4-1.2,1.8-2l1.2-2.1l1.2,2.1c0.5,0.8,1.1,1.5,1.8,2
		c0.6,0.4,1.1,0.9,1.4,1.5c0.9,1.4,0.9,3.6,0.4,5.2c3.9,0,7.2,3.3,7.2,7.2v3.1c0,4-3.2,7.2-7.2,7.2
		C172.8,311.8,172.8,314.1,171.8,315.5z M145.6,315.5c-0.4,0.6-0.9,1.1-1.4,1.5c-0.7,0.5-1.4,1.2-1.8,2l-1.2,2.1L140,319
		c-0.5-0.8-1.1-1.5-1.8-2c-0.6-0.4-1-0.9-1.4-1.5c-0.9-1.4-0.9-3.6-0.4-5.2c-3.9,0-7.2-3.3-7.2-7.2V300c0-4,3.2-7.2,7.2-7.2
		c-0.5-1.6-0.5-3.8,0.4-5.2c0.4-0.6,0.9-1.1,1.4-1.5c0.7-0.5,1.4-1.2,1.8-2l1.2-2.1l1.2,2.1c0.5,0.8,1.1,1.5,1.8,2
		c0.6,0.4,1.1,0.9,1.4,1.5c0.9,1.4,0.9,3.6,0.4,5.2c3.9,0,7.2,3.3,7.2,7.2v3.1c0,4-3.2,7.2-7.2,7.2
		C146.6,311.8,146.6,314.1,145.6,315.5z M119.5,315.5c-0.4,0.6-0.9,1.1-1.4,1.5c-0.7,0.5-1.4,1.2-1.8,2l-1.2,2.1l-1.2-2.1
		c-0.5-0.8-1.1-1.5-1.8-2c-0.6-0.4-1-0.9-1.4-1.5c-0.9-1.4-0.9-3.6-0.4-5.2c-3.9,0-7.2-3.3-7.2-7.2V300c0-4,3.2-7.2,7.2-7.2
		c-0.5-1.6-0.5-3.8,0.4-5.2c0.4-0.6,0.9-1.1,1.4-1.5c0.7-0.5,1.4-1.2,1.8-2l1.2-2.1l1.2,2.1c0.5,0.8,1.1,1.5,1.8,2
		c0.6,0.4,1.1,0.9,1.4,1.5c0.9,1.4,0.9,3.6,0.4,5.2c3.9,0,7.2,3.3,7.2,7.2v3.1c0,4-3.2,7.2-7.2,7.2
		C120.4,311.8,120.4,314.1,119.5,315.5z"/>
	<path d="M121.1,246.5h40.5c0.3,0,0.7-0.2,0.9-0.4c0.2-0.3,0.4-0.6,0.3-1c-0.7-8.1-6-15.2-13.5-18.2c-3-1.2-5.4-3.3-6.7-6.1
		l-0.6-1.3l0.3-0.1c0.9-0.4,1.6-1.3,1.6-2.3c0-0.8-0.4-1.5-1-2c1.3-0.6,2.2-1.9,2.2-3.4c0-2-1.7-3.7-3.7-3.7s-3.7,1.7-3.7,3.7
		c0,1.5,0.9,2.8,2.3,3.4c-0.6,0.5-0.9,1.1-0.9,1.9c0,1,0.6,1.9,1.6,2.3l0.3,0.1l-0.6,1.3c-1.3,2.7-3.7,4.9-6.7,6.1l0,0
		c-7.5,3-12.8,10.1-13.5,18.2c0,0.4,0.1,0.7,0.3,1C120.4,246.3,120.7,246.5,121.1,246.5z M141.3,209.8c1.1,0,2,0.9,2,2s-0.9,2-2,2
		s-2-0.9-2-2C139.2,210.7,140.1,209.8,141.3,209.8z"/>
	<path d="M103.7,271.3h74.9c0.5,0,0.9-0.3,1-0.7c0.2-0.5,0-0.9-0.3-1.2l-15.4-13.5c-0.2-0.2-0.5-0.3-0.7-0.3h-44.1
		c-0.3,0-0.5,0.1-0.7,0.3L103,269.4c-0.3,0.3-0.5,0.8-0.3,1.2S103.3,271.3,103.7,271.3z M155.5,260.9h9.3c0.1,0,0.2,0,0.2,0.1
		l4.7,4.2c0.2,0.2,0.1,0.6-0.2,0.6h-14c-0.2,0-0.4-0.2-0.4-0.4v-4.2C155.2,261.1,155.3,260.9,155.5,260.9z M153,261.3v4.2
		c0,0.2-0.2,0.4-0.4,0.4h-22.8c-0.2,0-0.4-0.2-0.4-0.4v-4.2c0-0.2,0.2-0.4,0.4-0.4h22.8C152.8,260.9,153,261.1,153,261.3z
		 M127.3,261.3v4.2c0,0.2-0.2,0.4-0.4,0.4h-14c-0.3,0-0.5-0.4-0.2-0.6l4.7-4.2c0.1-0.1,0.2-0.1,0.2-0.1h9.3
		C127.1,260.9,127.3,261.1,127.3,261.3z"/>
	<path d="M119.9,255.2h42.6c0.7,0,1.3-0.6,1.3-1.3v-5.6c0-0.7-0.6-1.3-1.3-1.3h-42.6c-0.7,0-1.3,0.6-1.3,1.3v5.6
		C118.6,254.6,119.2,255.2,119.9,255.2z"/>
	<path d="M178.7,331.3h-75c-0.5,0-0.9,0.3-1,0.7s0,0.9,0.3,1.2l15.4,13.5c0.2,0.2,0.5,0.3,0.7,0.3h44.1c0.3,0,0.5-0.1,0.7-0.3
		l15.4-13.5c0.3-0.3,0.5-0.8,0.3-1.2C179.6,331.6,179.1,331.3,178.7,331.3z M126.9,341.2h-9.3c-0.1,0-0.2,0-0.2-0.1l-4.7-4.2
		c-0.2-0.2-0.1-0.6,0.2-0.6h14c0.2,0,0.4,0.2,0.4,0.4v4.2C127.3,341.1,127.1,341.2,126.9,341.2z M129.5,340.9v-4.2
		c0-0.2,0.2-0.4,0.4-0.4h22.8c0.2,0,0.4,0.2,0.4,0.4v4.2c0,0.2-0.2,0.4-0.4,0.4h-22.8C129.6,341.2,129.5,341.1,129.5,340.9z
		 M155.2,340.9v-4.2c0-0.2,0.2-0.4,0.4-0.4h14c0.3,0,0.5,0.4,0.2,0.6l-4.7,4.2c-0.1,0.1-0.2,0.1-0.2,0.1h-9.3
		C155.3,341.2,155.2,341.1,155.2,340.9z"/>
	<path d="M162.5,347.3h-42.7c-0.7,0-1.3,0.6-1.3,1.3v5.6c0,0.7,0.6,1.3,1.3,1.3h42.6c0.7,0,1.3-0.6,1.3-1.3v-5.6
		C163.9,347.9,163.3,347.3,162.5,347.3z"/>
	<path d="M161.4,356.2h-40.5c-0.3,0-0.7,0.2-0.9,0.4c-0.2,0.3-0.4,0.6-0.3,1c0.7,8.1,6,15.2,13.6,18.2c3,1.2,5.4,3.3,6.7,6.1
		l0.8,1.7l-0.3,0.1c-0.8,0.3-1.3,1.1-1.3,1.9s0.4,1.4,1,1.8c-0.9,0.4-1.6,1.3-1.6,2.4c0,1.4,1.2,2.6,2.6,2.6s2.6-1.2,2.6-2.6
		c0-1.1-0.6-2-1.6-2.4c0.6-0.4,1-1,1-1.8c0-0.9-0.5-1.6-1.3-1.9l-0.3-0.1l0.8-1.7c1.3-2.7,3.7-4.9,6.7-6.1
		c7.5-3,12.9-10.1,13.6-18.2c0-0.4-0.1-0.7-0.3-1C162.1,356.3,161.8,356.2,161.4,356.2z"/>
</g>
</svg>
