<?xml version="1.0" encoding="utf-8"?>
<!-- Generator: Adobe Illustrator 25.2.0, SVG Export Plug-In . SVG Version: 6.00 Build 0)  -->
<svg version="1.1" id="Layer_1" xmlns="http://www.w3.org/2000/svg" xmlns:xlink="http://www.w3.org/1999/xlink" x="0px" y="0px"
	 viewBox="0 0 503 509.3" style="enable-background:new 0 0 503 509.3;" xml:space="preserve">
<style type="text/css">
	.st0{fill:#FFA19B;}
</style>
<g>
	<g>
		<g>
			<path class="st0" d="M494.2,287c2.3,2.4,3.8,5.7,3.8,9.4c0,3.6-1.5,7-4,9.4L494,306c-2.4,2.3-5.7,3.8-9.4,3.8
				c-3.6,0-6.9-1.5-9.4-3.9l-0.2-0.2c-2.3-2.4-3.8-5.7-3.8-9.3c0-3.7,1.5-7,3.9-9.5l0.2-0.2c2.4-2.3,5.7-3.8,9.3-3.8
				c3.7,0,7,1.5,9.5,3.9L494.2,287z M490.2,296.4c0-1.6-0.6-3-1.6-4c-1-1.1-2.4-1.6-4-1.6c-1.5,0-2.9,0.6-3.9,1.6
				c-1,1-1.6,2.3-1.6,4c0,1.5,0.6,2.8,1.6,3.9c1,1,2.3,1.6,3.9,1.6c1.5,0,3-0.6,4-1.6C489.5,299.2,490.2,298,490.2,296.4z"/>
			<path class="st0" d="M402.2,115.6c39.3,39.4,63.8,93.8,63.8,153.9s-24.4,114.4-63.8,153.8c-39.4,39.4-93.7,63.8-153.8,63.8
				c-60.1,0-114.5-24.4-153.9-63.8c-39.4-39.4-63.7-93.7-63.7-153.8s24.3-114.5,63.7-153.9c39.4-39.4,93.7-63.8,153.9-63.8
				C308.5,51.8,362.9,76.2,402.2,115.6z M458.2,269.4c0-57.9-23.4-110.4-61.4-148.4c-38-37.9-90.4-61.4-148.3-61.4
				c-57.9,0-110.4,23.5-148.3,61.4c-38,38-61.5,90.4-61.5,148.4c0,57.9,23.5,110.3,61.5,148.3c37.9,37.9,90.3,61.4,148.3,61.4
				c57.9,0,110.3-23.5,148.3-61.4C434.7,379.7,458.2,327.3,458.2,269.4z"/>
			<path class="st0" d="M418.3,76.4c1.9,1.1,2.5,3.5,1.5,5.3c-0.3,0.6-0.9,1.1-1.5,1.5l-14.2,8.2c-1.9,1.1-4.2,0.5-5.3-1.4
				c-1.1-1.9-0.4-4.3,1.5-5.3l8.4-4.8l-8.4-4.9c-1.9-1.1-2.5-3.5-1.5-5.3c1.1-1.9,3.5-2.5,5.3-1.4L418.3,76.4z"/>
			<path class="st0" d="M51,149c1.9,1.1,2.5,3.5,1.5,5.3c-0.3,0.6-0.9,1.1-1.5,1.5L36.8,164c-1.9,1.1-4.2,0.5-5.3-1.4
				c-1.1-1.9-0.4-4.3,1.5-5.3l8.4-4.8l-8.4-4.9c-1.9-1.1-2.5-3.5-1.5-5.3c1.1-1.9,3.5-2.5,5.3-1.4L51,149z"/>
			<path class="st0" d="M377.5,302.9v91.7c0,2.1-1.7,3.9-3.9,3.9h-50.1c-2.2,0-4-1.8-4-3.9v-81.3c0-9.4-0.5-20-4-27.9
				c-3.2-7.4-9.4-12.6-20.8-12.6c-11.8,0-18.5,4.5-22.2,11.2c-4,7.3-4.9,17.4-4.9,27.8v82.7c0,2.1-1.8,3.9-3.9,3.9H215
				c-2.1,0-3.9-1.8-3.9-3.9v-167c0-2.1,1.8-3.9,3.9-3.9h46.6c2.1,0,3.9,1.8,3.9,3.9v11.8c3.7-3.7,8.3-6.9,13.7-9.4
				c8.6-4,19.5-6.3,32.2-6.3c22.4,0,37.5,5.3,47.6,14.9c10.2,9.6,15.1,23.2,17.2,39.8c0.5,3.6,0.8,7.6,1,11.8
				C377.4,294.5,377.5,298.7,377.5,302.9z M369.7,390.7v-87.8c0-4.4-0.1-8.5-0.3-12.2c-0.2-3.8-0.5-7.6-1-11.2
				c-1.9-14.9-6.1-26.9-14.8-35.1c-8.6-8.2-22.1-12.8-42.3-12.8c-11.6,0-21.3,2-28.9,5.5c-7.9,3.6-13.6,8.8-16.8,14.9
				c-0.6,1.3-2,2-3.4,2.1h-0.7c-2.2,0-4-1.8-4-4v-18.6H219v159.1h40.8v-78.9c0-11.4,1.1-22.8,5.9-31.5c5.1-9.2,14-15.3,29.1-15.3
				c15.2,0,23.4,7.3,27.9,17.2c4.2,9.4,4.8,20.9,4.8,31.1v77.4L369.7,390.7L369.7,390.7z"/>
			<path class="st0" d="M370,479.6c2.1,0,3.9,1.8,3.9,4c0,2.2-1.8,3.9-3.9,3.9h-20.4c-2.2,0-3.9-1.7-3.9-3.9c0-2.2,1.7-4,3.9-4H370z
				"/>
			<path class="st0" d="M356.4,490.1c2.1,0,3.9,1.8,3.9,3.9c0,2.2-1.8,3.9-3.9,3.9h-43.5c-2.2,0-4-1.7-4-3.9c0-2.1,1.8-3.9,4-3.9
				H356.4z"/>
			<path class="st0" d="M185.6,227.6v167c0,2.1-1.8,3.9-4,3.9h-58.3c-2.2,0-4-1.8-4-3.9v-167c0-2.1,1.8-3.9,4-3.9h58.3
				C183.8,223.8,185.6,225.5,185.6,227.6z M177.8,390.7V231.6h-50.6V272v118.7L177.8,390.7L177.8,390.7z"/>
			<path class="st0" d="M185.6,173.4c0,9-3.6,17.2-9.5,23.2l-0.2,0.2c-6,6-14.3,9.7-23.4,9.7c-9.1,0-17.5-3.7-23.4-9.7
				c-6-6-9.7-14.3-9.7-23.4c0-9.1,3.7-17.5,9.7-23.4c6-6,14.3-9.7,23.4-9.7c9.1,0,17.5,3.7,23.4,9.7
				C181.9,156,185.6,164.3,185.6,173.4z M170.6,191.1c4.4-4.5,7.2-10.8,7.2-17.7c0-7-2.8-13.3-7.4-17.9c-4.5-4.5-10.9-7.4-17.9-7.4
				c-7,0-13.3,2.8-17.9,7.4c-4.6,4.6-7.4,10.9-7.4,17.9c0,7,2.8,13.3,7.4,17.9c4.6,4.6,10.9,7.4,17.9,7.4c7,0,13.3-2.8,17.9-7.4
				L170.6,191.1z"/>
			<path class="st0" d="M114.8,26.8c0.6,2.1-0.7,4.2-2.8,4.8l-6.9,1.9c-2,0.6-4.2-0.6-4.8-2.7c-0.5-2.1,0.7-4.2,2.8-4.8l7-1.9
				C112.1,23.4,114.2,24.7,114.8,26.8z"/>
			<path class="st0" d="M107.5,466c1.9,1.9,3.1,4.4,3.1,7.3c0,2.9-1.1,5.5-3.1,7.4c-1.9,1.9-4.4,3.1-7.3,3.1c-2.9,0-5.5-1.2-7.4-3.1
				c-1.9-1.9-3-4.4-3-7.4c0-2.8,1.1-5.4,3-7.3c1.9-1.9,4.4-3.1,7.4-3.1C103.1,462.9,105.7,464.1,107.5,466z M102.8,473.2
				c0-0.6-0.2-1.3-0.7-1.8c-0.5-0.5-1.1-0.7-1.8-0.7c-0.7,0-1.4,0.2-1.8,0.7c-0.5,0.5-0.8,1.1-0.8,1.8c0,0.7,0.3,1.4,0.8,1.8
				c0.4,0.5,1,0.8,1.8,0.8c0.6,0,1.3-0.3,1.8-0.8C102.5,474.6,102.8,474,102.8,473.2z"/>
			<path class="st0" d="M105,43.6c0.6,2.1-0.6,4.2-2.8,4.8c-2,0.6-4.2-0.6-4.8-2.7l-1.8-6.8c-0.6-2.1,0.6-4.2,2.7-4.8
				c2.1-0.6,4.2,0.6,4.8,2.7L105,43.6z"/>
			<path class="st0" d="M99.7,23.5c0.6,2.1-0.6,4.3-2.7,4.8c-2.1,0.5-4.2-0.7-4.8-2.8L90.4,19c-0.6-2,0.7-4.2,2.7-4.8
				c2.1-0.5,4.3,0.7,4.9,2.8L99.7,23.5z"/>
			<path class="st0" d="M95.3,31.9c0.6,2.1-0.6,4.2-2.7,4.8l-7.1,1.9c-2.1,0.6-4.2-0.6-4.8-2.8c-0.6-2.1,0.6-4.2,2.7-4.8l7.1-1.9
				C92.7,28.6,94.8,29.9,95.3,31.9z"/>
			<path class="st0" d="M359.7,36.6c0.6,2.1-0.7,4.2-2.8,4.8l-6.9,1.9c-2,0.6-4.2-0.6-4.8-2.7c-0.5-2.1,0.7-4.2,2.8-4.8l7-1.9
				C356.9,33.3,359.1,34.5,359.7,36.6z"/>
			<path class="st0" d="M349.9,53.4c0.6,2.1-0.6,4.2-2.8,4.8c-2,0.6-4.2-0.6-4.8-2.7l-1.8-6.8c-0.6-2.1,0.6-4.2,2.7-4.8
				c2.1-0.6,4.2,0.6,4.8,2.7L349.9,53.4z"/>
			<path class="st0" d="M344.6,33.4c0.6,2.1-0.6,4.3-2.7,4.8c-2.1,0.5-4.2-0.7-4.8-2.8l-1.8-6.6c-0.6-2,0.7-4.2,2.7-4.8
				c2.1-0.5,4.3,0.7,4.9,2.8L344.6,33.4z"/>
			<path class="st0" d="M340.2,41.8c0.6,2.1-0.6,4.2-2.7,4.8l-7.1,1.9c-2.1,0.6-4.2-0.6-4.8-2.8c-0.6-2.1,0.6-4.2,2.7-4.8l7.1-1.9
				C337.5,38.5,339.6,39.8,340.2,41.8z"/>
		</g>
	</g>
</g>
</svg>
